<?xml version="1.0" encoding="utf-8"?>
<!-- Generator: Adobe Illustrator 24.0.0, SVG Export Plug-In . SVG Version: 6.00 Build 0)  -->
<svg version="1.1" id="Layer_1" xmlns="http://www.w3.org/2000/svg" xmlns:xlink="http://www.w3.org/1999/xlink" x="0px" y="0px"
	 viewBox="0 0 249 68" style="enable-background:new 0 0 249 68;" xml:space="preserve">
<style type="text/css">
	.st0{fill:#FFFFFF;}
	.st1{fill:#FEC73C;}
	.st2{fill:#F03A16;}
	.st3{fill:none;stroke:#000000;stroke-width:1.68;stroke-linecap:round;stroke-linejoin:round;}
	.st4{fill:none;stroke:#000000;stroke-width:1.68;stroke-linecap:round;stroke-miterlimit:10;}
	.st5{fill:none;stroke:#000000;stroke-width:1.7;stroke-linecap:round;stroke-linejoin:round;}
	.st6{fill:none;stroke:#000000;stroke-width:1.7;stroke-linejoin:round;}
	.st7{enable-background:new    ;}
	.st8{fill:#00EB3B;}
</style>
<path class="st0" d="M227.81,0H21.19C9.49,0,0,9,0,20v14c0,11,9.49,20,21.19,20h164.24l11.65,14l12.72-14h18
	c11.7,0,21.19-9,21.19-20V20C249,9,239.51,0,227.81,0z"/>
<g>
	<ellipse class="st1" cx="49.99" cy="25.76" rx="15.28" ry="15.34"/>
	<path class="st2" d="M60.2,18.43c3.42-1.73,5.15-4.52,4.65-6.48c-0.29-1.23-1.29-2.17-2.52-2.38c-0.83-0.03-1.62,0.35-2.13,1.02
		l0,0c-0.55-0.65-1.35-1.03-2.2-1.02c-1.25,0.21-2.24,1.15-2.52,2.38C54.97,13.91,56.78,16.71,60.2,18.43z"/>
	<path class="st2" d="M39.83,20.3c3.42-1.74,5.17-4.52,4.65-6.48c-0.29-1.23-1.29-2.17-2.52-2.38c-0.83-0.02-1.62,0.35-2.13,1.02
		l0,0c-0.54-0.66-1.35-1.04-2.2-1.02c-1.25,0.21-2.24,1.15-2.52,2.38C34.58,15.78,36.41,18.56,39.83,20.3z"/>
	<path class="st2" d="M60.2,39.8c3.42-1.74,5.15-4.53,4.65-6.48c-0.3-1.22-1.29-2.16-2.52-2.38c-0.83-0.03-1.62,0.35-2.13,1.02l0,0
		c-0.55-0.65-1.35-1.03-2.2-1.02c-1.24,0.23-2.23,1.17-2.52,2.39C54.97,35.29,56.78,38.08,60.2,39.8z"/>
	<path class="st3" d="M56.06,30.02c-3.57,2.95-8.7,2.95-12.27,0"/>
	<path class="st4" d="M47.23,22.23c-0.66-1.5-2.41-2.16-3.89-1.5c0,0,0,0-0.01,0c-0.66,0.3-1.19,0.83-1.5,1.5"/>
	<path class="st4" d="M58.01,22.23c-0.66-1.5-2.41-2.16-3.9-1.5c-0.66,0.3-1.19,0.83-1.49,1.5"/>
	<path class="st5" d="M42.99,12.02c3.91-1.92,8.45-2.09,12.49-0.47"/>
	<path class="st5" d="M58.2,39.06c-7.19,4.67-16.78,2.62-21.44-4.6c-3.17-4.91-3.32-11.19-0.4-16.26"/>
	<path class="st5" d="M62.43,17.04c3.11,4.42,3.71,10.15,1.57,15.12"/>
	<path class="st6" d="M62.43,17.04c1.94-1.6,2.79-3.56,2.42-5.05c-0.3-1.24-1.3-2.19-2.56-2.42c-0.86-0.04-1.68,0.34-2.2,1.03
		c-0.52-0.63-1.28-1-2.09-1.04h-0.15c-1.1,0.16-2.03,0.92-2.41,1.97"/>
	<path class="st6" d="M42.99,12.02c-0.39-0.33-0.87-0.52-1.37-0.57c-0.86-0.04-1.68,0.35-2.2,1.03c-0.52-0.62-1.28-1-2.09-1.04
		h-0.15c-1.26,0.22-2.27,1.17-2.57,2.42c-0.32,1.26,0.32,2.86,1.71,4.32"/>
	<path class="st6" d="M58.2,39.06c0.61,0.45,1.25,0.85,1.92,1.2c3.47-1.76,5.23-4.59,4.72-6.58c-0.18-0.56-0.46-1.08-0.85-1.52"/>
</g>
<g>
	<g class="st7">
		<path d="M95.04,24.1c-1.06,0-1.94-0.22-2.64-0.66c-0.7-0.44-1.18-1.04-1.42-1.79l2.38-1.38c0.32,0.82,0.91,1.24,1.75,1.24
			c0.63,0,0.94-0.17,0.94-0.5c0-0.09-0.02-0.18-0.07-0.25c-0.05-0.07-0.13-0.14-0.26-0.2s-0.24-0.1-0.34-0.13
			c-0.1-0.03-0.27-0.08-0.51-0.15c-0.24-0.06-0.42-0.12-0.54-0.15c-1.94-0.58-2.9-1.63-2.9-3.13c0-0.89,0.32-1.63,0.97-2.21
			c0.64-0.58,1.49-0.88,2.54-0.88c0.82,0,1.56,0.19,2.22,0.58c0.65,0.39,1.13,0.95,1.44,1.68l-2.31,1.35
			c-0.27-0.69-0.71-1.03-1.33-1.03c-0.24,0-0.42,0.05-0.55,0.15c-0.13,0.1-0.19,0.22-0.19,0.37c0,0.2,0.11,0.36,0.33,0.47
			c0.22,0.11,0.64,0.25,1.26,0.43c0.46,0.14,0.84,0.27,1.14,0.4s0.61,0.3,0.93,0.53c0.32,0.23,0.57,0.52,0.73,0.88
			c0.16,0.36,0.24,0.78,0.24,1.26c0,0.99-0.34,1.76-1.02,2.3C97.13,23.83,96.2,24.1,95.04,24.1z"/>
		<path d="M103.17,24.07c-1.04,0-1.92-0.35-2.65-1.06s-1.09-1.58-1.09-2.61c0-1.04,0.36-1.91,1.08-2.61s1.61-1.06,2.65-1.06
			c1.05,0,1.93,0.35,2.65,1.06s1.08,1.57,1.08,2.61c0,1.04-0.36,1.91-1.08,2.61S104.21,24.07,103.17,24.07z M102.33,21.28
			c0.22,0.23,0.5,0.34,0.84,0.34c0.34,0,0.62-0.11,0.84-0.34c0.22-0.23,0.33-0.52,0.33-0.88s-0.11-0.66-0.33-0.88
			c-0.22-0.23-0.5-0.34-0.84-0.34c-0.34,0-0.62,0.11-0.84,0.34c-0.22,0.23-0.33,0.52-0.33,0.88S102.11,21.06,102.33,21.28z"/>
		<path d="M111.14,24.07c-1.04,0-1.92-0.35-2.65-1.06s-1.09-1.58-1.09-2.61c0-1.04,0.36-1.91,1.08-2.61s1.61-1.06,2.65-1.06
			c1.05,0,1.93,0.35,2.65,1.06s1.08,1.57,1.08,2.61c0,1.04-0.36,1.91-1.08,2.61S112.19,24.07,111.14,24.07z M110.3,21.28
			c0.22,0.23,0.5,0.34,0.84,0.34c0.34,0,0.62-0.11,0.84-0.34c0.22-0.23,0.33-0.52,0.33-0.88s-0.11-0.66-0.33-0.88
			c-0.22-0.23-0.5-0.34-0.84-0.34c-0.34,0-0.62,0.11-0.84,0.34c-0.22,0.23-0.33,0.52-0.33,0.88S110.08,21.06,110.3,21.28z"/>
		<path d="M119.12,24.07c-1.04,0-1.92-0.35-2.65-1.06s-1.09-1.58-1.09-2.61c0-1.04,0.36-1.91,1.08-2.61s1.61-1.06,2.65-1.06
			c1.05,0,1.93,0.35,2.65,1.06s1.08,1.57,1.08,2.61c0,1.04-0.36,1.91-1.08,2.61S120.16,24.07,119.12,24.07z M118.28,21.28
			c0.22,0.23,0.5,0.34,0.84,0.34c0.34,0,0.62-0.11,0.84-0.34c0.22-0.23,0.33-0.52,0.33-0.88s-0.11-0.66-0.33-0.88
			c-0.22-0.23-0.5-0.34-0.84-0.34c-0.34,0-0.62,0.11-0.84,0.34c-0.22,0.23-0.33,0.52-0.33,0.88S118.06,21.06,118.28,21.28z"/>
		<path d="M127.09,24.07c-1.04,0-1.92-0.35-2.65-1.06s-1.09-1.58-1.09-2.61c0-1.04,0.36-1.91,1.08-2.61
			c0.72-0.7,1.61-1.06,2.65-1.06s1.93,0.35,2.65,1.06s1.08,1.57,1.08,2.61c0,1.04-0.36,1.91-1.08,2.61S128.14,24.07,127.09,24.07z
			 M126.25,21.28c0.22,0.23,0.5,0.34,0.84,0.34s0.62-0.11,0.84-0.34c0.22-0.23,0.33-0.52,0.33-0.88s-0.11-0.66-0.33-0.88
			c-0.22-0.23-0.5-0.34-0.84-0.34s-0.62,0.11-0.84,0.34c-0.22,0.23-0.33,0.52-0.33,0.88S126.04,21.06,126.25,21.28z"/>
		<path d="M135.07,24.07c-1.04,0-1.92-0.35-2.65-1.06c-0.73-0.7-1.09-1.58-1.09-2.61c0-1.04,0.36-1.91,1.08-2.61
			s1.61-1.06,2.65-1.06c1.05,0,1.93,0.35,2.65,1.06s1.08,1.57,1.08,2.61c0,1.04-0.36,1.91-1.08,2.61S136.12,24.07,135.07,24.07z
			 M134.23,21.28c0.22,0.23,0.5,0.34,0.84,0.34c0.34,0,0.62-0.11,0.84-0.34c0.22-0.23,0.33-0.52,0.33-0.88s-0.11-0.66-0.33-0.88
			c-0.22-0.23-0.5-0.34-0.84-0.34c-0.34,0-0.62,0.11-0.84,0.34c-0.22,0.23-0.33,0.52-0.33,0.88S134.01,21.06,134.23,21.28z"/>
		<path d="M143.05,24.07c-1.04,0-1.92-0.35-2.65-1.06c-0.73-0.7-1.09-1.58-1.09-2.61c0-1.04,0.36-1.91,1.08-2.61
			s1.61-1.06,2.65-1.06s1.93,0.35,2.65,1.06s1.08,1.57,1.08,2.61c0,1.04-0.36,1.91-1.08,2.61S144.09,24.07,143.05,24.07z
			 M142.21,21.28c0.22,0.23,0.5,0.34,0.84,0.34s0.62-0.11,0.84-0.34c0.22-0.23,0.33-0.52,0.33-0.88s-0.11-0.66-0.33-0.88
			c-0.22-0.23-0.5-0.34-0.84-0.34s-0.62,0.11-0.84,0.34c-0.22,0.23-0.33,0.52-0.33,0.88S141.99,21.06,142.21,21.28z"/>
		<path d="M154.01,24.1c-1.06,0-1.94-0.22-2.64-0.66c-0.7-0.44-1.18-1.04-1.42-1.79l2.38-1.38c0.32,0.82,0.91,1.24,1.75,1.24
			c0.63,0,0.95-0.17,0.95-0.5c0-0.09-0.02-0.18-0.07-0.25c-0.05-0.07-0.13-0.14-0.26-0.2s-0.24-0.1-0.34-0.13
			c-0.1-0.03-0.27-0.08-0.51-0.15s-0.42-0.12-0.54-0.15c-1.94-0.58-2.9-1.63-2.9-3.13c0-0.89,0.32-1.63,0.97-2.21
			c0.64-0.58,1.49-0.88,2.54-0.88c0.82,0,1.56,0.19,2.22,0.58c0.65,0.39,1.13,0.95,1.44,1.68l-2.31,1.35
			c-0.27-0.69-0.71-1.03-1.33-1.03c-0.24,0-0.42,0.05-0.55,0.15c-0.13,0.1-0.19,0.22-0.19,0.37c0,0.2,0.11,0.36,0.33,0.47
			c0.22,0.11,0.64,0.25,1.26,0.43c0.46,0.14,0.84,0.27,1.14,0.4c0.3,0.13,0.61,0.3,0.93,0.53c0.32,0.23,0.57,0.52,0.73,0.88
			c0.16,0.36,0.24,0.78,0.24,1.26c0,0.99-0.34,1.76-1.02,2.3S155.18,24.1,154.01,24.1z"/>
		<path d="M166.21,16.93h2.71l-2.01,6.95h-2.61l-0.86-3.27l-0.86,3.27h-2.61l-2.01-6.95h2.71l0.81,3.85l1-3.85h1.95l1,3.85
			L166.21,16.93z"/>
		<path d="M171.7,21.28c0.22,0.46,0.69,0.7,1.42,0.7c0.43,0,0.82-0.15,1.18-0.45l1.68,1.42c-0.69,0.75-1.68,1.13-2.95,1.13
			c-1.19,0-2.14-0.34-2.86-1.04c-0.72-0.69-1.08-1.56-1.08-2.61c0-1.06,0.35-1.94,1.05-2.64s1.58-1.06,2.65-1.06
			c1.06,0,1.92,0.35,2.61,1.04c0.68,0.69,1.02,1.56,1.02,2.61c0,0.31-0.04,0.61-0.11,0.9H171.7z M171.66,19.62h2.33
			c-0.16-0.56-0.53-0.83-1.13-0.83C172.26,18.79,171.86,19.07,171.66,19.62z"/>
		<path d="M179.51,21.28c0.22,0.46,0.69,0.7,1.42,0.7c0.43,0,0.82-0.15,1.18-0.45l1.68,1.42c-0.69,0.75-1.68,1.13-2.95,1.13
			c-1.19,0-2.14-0.34-2.86-1.04c-0.72-0.69-1.08-1.56-1.08-2.61c0-1.06,0.35-1.94,1.05-2.64s1.58-1.06,2.65-1.06
			c1.06,0,1.92,0.35,2.61,1.04c0.68,0.69,1.02,1.56,1.02,2.61c0,0.31-0.04,0.61-0.11,0.9H179.51z M179.47,19.62h2.33
			c-0.16-0.56-0.53-0.83-1.13-0.83C180.07,18.79,179.67,19.07,179.47,19.62z"/>
		<path d="M189.76,14.15h2.57v9.73h-2.57v-0.63c-0.44,0.55-1.07,0.82-1.86,0.82c-0.94,0-1.7-0.35-2.29-1.04
			c-0.59-0.69-0.89-1.57-0.89-2.63c0-1.06,0.3-1.93,0.89-2.63c0.59-0.69,1.36-1.04,2.29-1.04c0.8,0,1.42,0.27,1.86,0.82V14.15z
			 M187.63,21.33c0.23,0.25,0.53,0.38,0.9,0.38c0.37,0,0.67-0.13,0.9-0.38c0.23-0.25,0.34-0.56,0.34-0.93
			c0-0.37-0.11-0.68-0.34-0.93c-0.23-0.25-0.53-0.38-0.9-0.38c-0.37,0-0.67,0.13-0.9,0.38c-0.23,0.25-0.34,0.56-0.34,0.93
			C187.29,20.77,187.4,21.08,187.63,21.33z"/>
		<path d="M193.93,20.26l-0.49-3.33v-2.78h3.2v2.78l-0.49,3.33H193.93z M196.18,23.62c-0.31,0.31-0.69,0.46-1.13,0.46
			c-0.44,0-0.82-0.16-1.13-0.46c-0.31-0.31-0.47-0.69-0.47-1.13s0.16-0.82,0.47-1.13c0.31-0.31,0.69-0.46,1.13-0.46
			c0.45,0,0.82,0.16,1.13,0.46c0.31,0.31,0.47,0.69,0.47,1.13S196.49,23.31,196.18,23.62z"/>
	</g>
	<g>
		<path class="st8" d="M102.75,32.28c-0.06,0.2-0.2,0.35-0.36,0.48c-0.79,0.69-1.57,1.38-2.36,2.07c-0.07,0.06-0.09,0.11-0.07,0.21
			c0.25,1.07,0.49,2.14,0.73,3.2c0.06,0.28,0,0.52-0.23,0.69c-0.24,0.18-0.49,0.17-0.74,0.02c-0.94-0.56-1.87-1.12-2.81-1.68
			c-0.09-0.06-0.15-0.05-0.24,0c-0.93,0.56-1.87,1.12-2.8,1.68c-0.32,0.19-0.66,0.14-0.86-0.13c-0.13-0.17-0.16-0.36-0.11-0.56
			c0.24-1.07,0.48-2.14,0.73-3.2c0.02-0.1,0.01-0.17-0.08-0.24c-0.82-0.72-1.65-1.44-2.47-2.16c-0.21-0.19-0.3-0.42-0.21-0.69
			c0.08-0.26,0.28-0.41,0.56-0.44c0.66-0.06,1.31-0.12,1.97-0.18c0.46-0.04,0.91-0.08,1.37-0.12c0.07-0.01,0.11-0.04,0.13-0.1
			c0.43-1.01,0.86-2.02,1.29-3.03c0.11-0.25,0.28-0.41,0.56-0.44c0.29-0.02,0.52,0.13,0.65,0.43c0.4,0.92,0.8,1.85,1.18,2.78
			c0.11,0.27,0.24,0.38,0.53,0.4c0.98,0.07,1.95,0.17,2.93,0.25c0.36,0.03,0.61,0.18,0.71,0.54
			C102.75,32.12,102.75,32.2,102.75,32.28z"/>
		<path class="st8" d="M116.78,32.28c-0.06,0.2-0.2,0.35-0.36,0.48c-0.79,0.69-1.57,1.38-2.36,2.07c-0.07,0.06-0.09,0.11-0.07,0.21
			c0.25,1.07,0.49,2.14,0.73,3.2c0.06,0.28,0,0.52-0.23,0.69c-0.24,0.18-0.49,0.17-0.74,0.02c-0.94-0.56-1.87-1.12-2.81-1.68
			c-0.09-0.06-0.15-0.05-0.24,0c-0.93,0.56-1.87,1.12-2.8,1.68c-0.32,0.19-0.66,0.14-0.86-0.13c-0.13-0.17-0.16-0.36-0.11-0.56
			c0.24-1.07,0.48-2.14,0.73-3.2c0.02-0.1,0.01-0.17-0.08-0.24c-0.82-0.72-1.65-1.44-2.47-2.16c-0.21-0.19-0.3-0.42-0.21-0.69
			c0.08-0.26,0.28-0.41,0.56-0.44c0.66-0.06,1.31-0.12,1.97-0.18c0.46-0.04,0.91-0.08,1.37-0.12c0.07-0.01,0.11-0.04,0.13-0.1
			c0.43-1.01,0.86-2.02,1.29-3.03c0.11-0.25,0.28-0.41,0.56-0.44c0.29-0.02,0.52,0.13,0.65,0.43c0.4,0.92,0.8,1.85,1.18,2.78
			c0.11,0.27,0.24,0.38,0.53,0.4c0.98,0.07,1.95,0.17,2.93,0.25c0.36,0.03,0.61,0.18,0.71,0.54
			C116.78,32.12,116.78,32.2,116.78,32.28z"/>
		<path class="st8" d="M130.8,32.28c-0.06,0.2-0.2,0.35-0.36,0.48c-0.79,0.69-1.57,1.38-2.36,2.07c-0.07,0.06-0.09,0.11-0.07,0.21
			c0.25,1.07,0.49,2.14,0.73,3.2c0.06,0.28,0,0.52-0.23,0.69c-0.24,0.18-0.49,0.17-0.74,0.02c-0.94-0.56-1.87-1.12-2.81-1.68
			c-0.09-0.06-0.15-0.05-0.24,0c-0.93,0.56-1.87,1.12-2.8,1.68c-0.32,0.19-0.66,0.14-0.86-0.13c-0.13-0.17-0.16-0.36-0.11-0.56
			c0.24-1.07,0.48-2.14,0.73-3.2c0.02-0.1,0.01-0.17-0.08-0.24c-0.82-0.72-1.65-1.44-2.47-2.16c-0.21-0.19-0.3-0.42-0.21-0.69
			c0.08-0.26,0.28-0.41,0.56-0.44c0.66-0.06,1.31-0.12,1.97-0.18c0.46-0.04,0.91-0.08,1.37-0.12c0.07-0.01,0.11-0.04,0.13-0.1
			c0.43-1.01,0.86-2.02,1.29-3.03c0.11-0.25,0.28-0.41,0.56-0.44c0.29-0.02,0.52,0.13,0.65,0.43c0.4,0.92,0.8,1.85,1.18,2.78
			c0.11,0.27,0.24,0.38,0.53,0.4c0.98,0.07,1.95,0.17,2.93,0.25c0.36,0.03,0.61,0.18,0.71,0.54C130.8,32.12,130.8,32.2,130.8,32.28z
			"/>
		<path class="st8" d="M144.83,32.28c-0.06,0.2-0.2,0.35-0.36,0.48c-0.79,0.69-1.57,1.38-2.36,2.07c-0.07,0.06-0.09,0.11-0.07,0.21
			c0.25,1.07,0.49,2.14,0.73,3.2c0.06,0.28,0,0.52-0.23,0.69c-0.24,0.18-0.49,0.17-0.74,0.02c-0.94-0.56-1.87-1.12-2.81-1.68
			c-0.09-0.06-0.15-0.05-0.24,0c-0.93,0.56-1.87,1.12-2.8,1.68c-0.32,0.19-0.66,0.14-0.86-0.13c-0.13-0.17-0.16-0.36-0.11-0.56
			c0.24-1.07,0.48-2.14,0.73-3.2c0.02-0.1,0.01-0.17-0.08-0.24c-0.82-0.72-1.65-1.44-2.47-2.16c-0.21-0.19-0.3-0.42-0.21-0.69
			c0.08-0.26,0.28-0.41,0.56-0.44c0.66-0.06,1.31-0.12,1.97-0.18c0.46-0.04,0.91-0.08,1.37-0.12c0.07-0.01,0.11-0.04,0.13-0.1
			c0.43-1.01,0.86-2.02,1.29-3.03c0.11-0.25,0.28-0.41,0.56-0.44c0.29-0.02,0.52,0.13,0.65,0.43c0.4,0.92,0.8,1.85,1.18,2.78
			c0.11,0.27,0.24,0.38,0.53,0.4c0.98,0.07,1.95,0.17,2.93,0.25c0.36,0.03,0.61,0.18,0.71,0.54
			C144.83,32.12,144.83,32.2,144.83,32.28z"/>
		<path class="st8" d="M158.86,32.28c-0.06,0.2-0.2,0.35-0.36,0.48c-0.79,0.69-1.57,1.38-2.36,2.07c-0.07,0.06-0.09,0.11-0.07,0.21
			c0.25,1.07,0.49,2.14,0.73,3.2c0.06,0.28,0,0.52-0.23,0.69c-0.24,0.18-0.49,0.17-0.74,0.02c-0.94-0.56-1.87-1.12-2.81-1.68
			c-0.09-0.06-0.15-0.05-0.24,0c-0.93,0.56-1.87,1.12-2.8,1.68c-0.32,0.19-0.66,0.14-0.86-0.13c-0.13-0.17-0.16-0.36-0.11-0.56
			c0.24-1.07,0.48-2.14,0.73-3.2c0.02-0.1,0.01-0.17-0.08-0.24c-0.82-0.72-1.65-1.44-2.47-2.16c-0.21-0.19-0.3-0.42-0.21-0.69
			c0.08-0.26,0.28-0.41,0.56-0.44c0.66-0.06,1.31-0.12,1.97-0.18c0.46-0.04,0.91-0.08,1.37-0.12c0.07-0.01,0.11-0.04,0.13-0.1
			c0.43-1.01,0.86-2.02,1.29-3.03c0.11-0.25,0.28-0.41,0.56-0.44c0.29-0.02,0.52,0.13,0.65,0.43c0.4,0.92,0.8,1.85,1.18,2.78
			c0.11,0.27,0.24,0.38,0.53,0.4c0.98,0.07,1.95,0.17,2.93,0.25c0.36,0.03,0.61,0.18,0.71,0.54
			C158.86,32.12,158.86,32.2,158.86,32.28z"/>
	</g>
</g>
</svg>
