<?xml version="1.0" encoding="utf-8"?>
<!-- Generator: Adobe Illustrator 24.0.0, SVG Export Plug-In . SVG Version: 6.00 Build 0)  -->
<svg version="1.1" id="Layer_1" xmlns="http://www.w3.org/2000/svg" xmlns:xlink="http://www.w3.org/1999/xlink" x="0px" y="0px"
	 viewBox="0 0 249 68" style="enable-background:new 0 0 249 68;" xml:space="preserve">
<style type="text/css">
	.st0{fill:#FFFFFF;}
	.st1{fill:#FEC73C;}
	.st2{fill:#F03A16;}
	.st3{fill:none;stroke:#000000;stroke-width:1.68;stroke-linecap:round;stroke-miterlimit:10;}
	.st4{fill:none;stroke:#000000;stroke-width:2;stroke-linecap:round;stroke-linejoin:round;}
	.st5{fill:none;stroke:#000000;stroke-width:2;stroke-miterlimit:10;}
	.st6{fill:#241F42;}
	.st7{fill:#00EB3B;}
	.st8{fill:#DBDBDB;}
</style>
<path class="st0" d="M0.64,20v14c0,11,9.49,20,21.19,20h18l12.72,14L64.2,54h164.24c11.7,0,21.19-9,21.19-20V20
	c0-11-9.49-20-21.19-20H21.82C10.12,0,0.63,9,0.64,20z"/>
<g>
	<g>
		<ellipse class="st1" cx="54.43" cy="26.83" rx="14.94" ry="15.43"/>
		<path class="st2" d="M60.35,33.11c0.88,1.09,1.65,2.26,2.31,3.5c0.46,1.02,0.75,2.12,0.84,3.25c-0.01,0.78-0.33,1.51-0.9,2.04
			c-0.68,0.41-1.53,0.41-2.21,0c-0.43-0.23-0.98-0.6-1.79-2.49c-0.64-1.53-1.1-3.12-1.36-4.76L60.35,33.11z"/>
		<path class="st3" d="M51.4,23.41c-0.65-1.54-2.4-2.25-3.89-1.57c-0.68,0.31-1.22,0.87-1.52,1.57"/>
		<path class="st3" d="M62.16,23.41c-0.65-1.54-2.4-2.25-3.89-1.57c-0.68,0.31-1.22,0.87-1.52,1.57"/>
		<path class="st4" d="M46.13,31.34c1.81,2.5,4.58,4.06,7.6,4.28c3.65,0.12,7.08-1.78,8.99-5"/>
		<path class="st5" d="M60.03,41.74c0.19,0.21,0.41,0.39,0.65,0.51c0.68,0.41,1.53,0.41,2.21,0c0.57-0.53,0.9-1.28,0.91-2.07
			c0.02-0.21,0.02-0.42,0-0.63c6.81-5.35,8.13-15.39,2.95-22.42c-5.18-7.03-14.92-8.39-21.72-3.04s-8.13,15.39-2.95,22.42
			C46.27,42.2,53.59,44.33,60.03,41.74z"/>
	</g>
	<g>
		<g>
			<path class="st6" d="M93.23,22.29c-0.62,0.01-1.23-0.1-1.79-0.34c-0.5-0.22-0.91-0.6-1.18-1.07c-0.3-0.55-0.45-1.17-0.45-1.79
				c0-0.34,0-0.67,0-1c0-0.32,0-0.67,0-1.01c-0.01-0.63,0.15-1.25,0.45-1.8c0.28-0.47,0.69-0.84,1.19-1.08
				c1.13-0.49,2.4-0.49,3.53,0c0.51,0.23,0.93,0.6,1.22,1.08c0.3,0.54,0.46,1.16,0.47,1.78c0,0.34,0,0.68,0,1.01c0,0.32,0,0.66,0,1
				c0,0.63-0.16,1.24-0.46,1.79c-0.27,0.47-0.68,0.85-1.18,1.07C94.46,22.17,93.85,22.3,93.23,22.29z M93.23,20.94
				c0.46,0.02,0.9-0.14,1.24-0.45c0.36-0.4,0.55-0.93,0.52-1.46c0-0.34,0-0.67,0-0.96s0-0.61,0-0.94c0-0.39-0.09-0.77-0.26-1.11
				c-0.13-0.27-0.35-0.49-0.62-0.62c-0.56-0.25-1.2-0.25-1.76,0c-0.27,0.14-0.49,0.35-0.63,0.62c-0.17,0.35-0.25,0.72-0.26,1.11
				c0,0.34,0,0.65,0,0.94s0,0.62,0,0.96c-0.02,0.54,0.16,1.06,0.52,1.46C92.32,20.8,92.77,20.96,93.23,20.94z"/>
			<path class="st6" d="M98.37,22.17c-0.08,0-0.15-0.03-0.21-0.08c-0.05-0.05-0.08-0.12-0.08-0.2v-5.53c0-0.15,0.12-0.28,0.27-0.29
				h0.01h0.91c0.15,0,0.28,0.12,0.29,0.27v0.01v0.37c0.18-0.23,0.4-0.42,0.66-0.56c0.3-0.16,0.64-0.24,0.99-0.24
				c0.78-0.08,1.53,0.33,1.87,1.04c0.19-0.31,0.46-0.56,0.78-0.73c0.7-0.38,1.54-0.38,2.24,0c0.34,0.2,0.61,0.5,0.78,0.86
				c0.21,0.46,0.31,0.96,0.29,1.46v3.29c0,0.07-0.03,0.14-0.08,0.2c-0.05,0.05-0.12,0.08-0.2,0.08h-0.96
				c-0.08,0-0.15-0.03-0.21-0.08c-0.05-0.05-0.08-0.12-0.08-0.2V18.6c0.01-0.29-0.04-0.57-0.15-0.83c-0.08-0.19-0.23-0.34-0.41-0.44
				c-0.18-0.09-0.37-0.14-0.57-0.13c-0.18,0-0.36,0.05-0.51,0.13c-0.18,0.1-0.33,0.25-0.42,0.44c-0.12,0.26-0.18,0.55-0.16,0.83
				v3.24c0,0.08-0.03,0.15-0.09,0.2c-0.05,0.05-0.12,0.08-0.2,0.08h-0.96c-0.07,0-0.15-0.03-0.2-0.08c-0.05-0.05-0.08-0.12-0.08-0.2
				V18.6c0.01-0.29-0.05-0.57-0.17-0.83c-0.09-0.19-0.24-0.34-0.42-0.44c-0.17-0.09-0.36-0.13-0.56-0.13
				c-0.18,0-0.37,0.05-0.53,0.14c-0.18,0.1-0.33,0.25-0.42,0.44c-0.12,0.26-0.18,0.54-0.17,0.83v3.24c0,0.07-0.03,0.15-0.08,0.2
				c-0.05,0.05-0.12,0.08-0.2,0.08L98.37,22.17z"/>
			<path class="st6" d="M108.89,19.32c-0.08,0.01-0.15-0.02-0.21-0.08c-0.05-0.05-0.08-0.12-0.07-0.2v-0.78
				c0-0.07,0.02-0.14,0.07-0.2c0.05-0.05,0.13-0.08,0.21-0.08h3.59c0.07,0,0.15,0.03,0.2,0.08c0.06,0.05,0.09,0.12,0.09,0.2v0.78
				c0,0.08-0.03,0.15-0.09,0.2c-0.05,0.06-0.12,0.09-0.2,0.08H108.89z"/>
			<path class="st6" d="M114.56,22.17c-0.15,0-0.28-0.12-0.28-0.28v-5.53c0-0.08,0.03-0.15,0.08-0.21c0.05-0.05,0.12-0.08,0.2-0.08
				h0.97c0.07,0,0.14,0.03,0.2,0.08c0.05,0.06,0.08,0.13,0.08,0.21v0.48c0.21-0.26,0.48-0.47,0.78-0.63
				c0.37-0.17,0.77-0.26,1.18-0.25c0.44-0.01,0.87,0.1,1.24,0.32c0.35,0.22,0.64,0.53,0.81,0.91c0.2,0.44,0.3,0.92,0.29,1.41v3.27
				c0,0.07-0.03,0.14-0.08,0.2c-0.05,0.05-0.12,0.08-0.2,0.08h-1.01c-0.07,0-0.15-0.03-0.2-0.08c-0.05-0.05-0.08-0.12-0.08-0.2
				v-3.22c0.02-0.39-0.1-0.77-0.34-1.07c-0.25-0.27-0.6-0.41-0.97-0.39c-0.37-0.02-0.72,0.12-0.97,0.39
				c-0.26,0.29-0.39,0.68-0.36,1.07v3.22c0,0.08-0.03,0.15-0.09,0.2c-0.05,0.05-0.12,0.08-0.2,0.08L114.56,22.17z"/>
			<path class="st6" d="M124.28,22.29c-0.54,0.02-1.08-0.1-1.57-0.33c-0.41-0.21-0.74-0.53-0.97-0.92c-0.23-0.43-0.36-0.91-0.38-1.4
				c0-0.14,0-0.31,0-0.51s0-0.37,0-0.51c0.02-0.49,0.15-0.97,0.4-1.41c0.23-0.39,0.57-0.71,0.98-0.92c0.99-0.44,2.12-0.44,3.1,0
				c0.41,0.21,0.75,0.52,0.99,0.92c0.24,0.43,0.37,0.91,0.39,1.41c0,0.14,0,0.31,0,0.51s0,0.37,0,0.51
				c-0.02,0.49-0.15,0.97-0.38,1.4c-0.22,0.4-0.56,0.72-0.97,0.92C125.37,22.19,124.83,22.31,124.28,22.29z M124.28,21.13
				c0.37,0.02,0.72-0.12,0.97-0.4c0.25-0.33,0.38-0.74,0.37-1.16c0-0.12,0-0.26,0-0.45s0-0.34,0-0.45c0.01-0.42-0.12-0.82-0.37-1.16
				c-0.53-0.53-1.39-0.53-1.93,0c-0.25,0.33-0.38,0.74-0.37,1.16c0,0.12,0,0.26,0,0.45s0,0.34,0,0.45
				c-0.01,0.42,0.12,0.82,0.37,1.16C123.57,21.01,123.92,21.15,124.28,21.13z"/>
			<path class="st6" d="M128.81,22.17c-0.07,0-0.15-0.03-0.2-0.08c-0.06-0.05-0.09-0.12-0.09-0.2v-5.53c0-0.08,0.03-0.15,0.09-0.21
				c0.05-0.05,0.12-0.08,0.2-0.08h0.92c0.07,0,0.14,0.03,0.2,0.08c0.05,0.06,0.08,0.13,0.08,0.21v0.37c0.18-0.23,0.4-0.42,0.66-0.56
				c0.31-0.16,0.65-0.24,1-0.24c0.78-0.08,1.52,0.34,1.86,1.04c0.19-0.31,0.46-0.56,0.78-0.73c0.35-0.19,0.74-0.29,1.13-0.29
				s0.77,0.09,1.11,0.28c0.34,0.2,0.61,0.5,0.78,0.86c0.21,0.46,0.31,0.96,0.29,1.46v3.3c0,0.07-0.03,0.15-0.08,0.2
				c-0.05,0.05-0.12,0.08-0.2,0.08h-0.94c-0.07,0-0.15-0.03-0.2-0.08c-0.06-0.05-0.09-0.12-0.09-0.2v-3.24
				c0.01-0.29-0.04-0.57-0.15-0.83c-0.09-0.19-0.23-0.34-0.41-0.44c-0.18-0.09-0.38-0.13-0.58-0.13c-0.18,0-0.35,0.05-0.51,0.13
				c-0.18,0.1-0.33,0.25-0.42,0.44c-0.12,0.26-0.18,0.55-0.16,0.83v3.24c0,0.07-0.03,0.14-0.08,0.2c-0.06,0.05-0.13,0.08-0.21,0.08
				h-0.96c-0.15,0-0.28-0.12-0.28-0.28l0,0v-3.24c0.01-0.29-0.05-0.57-0.17-0.83c-0.09-0.19-0.24-0.34-0.42-0.44
				c-0.17-0.09-0.36-0.13-0.55-0.13c-0.18,0-0.37,0.05-0.53,0.14c-0.18,0.1-0.33,0.25-0.42,0.44c-0.12,0.26-0.18,0.54-0.16,0.83
				v3.24c0,0.08-0.03,0.15-0.09,0.2c-0.05,0.05-0.12,0.08-0.2,0.08L128.81,22.17z"/>
			<path class="st6" d="M139.31,19.32c-0.08,0.01-0.15-0.02-0.21-0.08c-0.05-0.05-0.08-0.12-0.07-0.2v-0.78
				c0-0.07,0.02-0.14,0.07-0.2c0.05-0.05,0.13-0.08,0.21-0.08h3.59c0.08,0,0.15,0.03,0.21,0.08c0.05,0.05,0.08,0.12,0.08,0.2v0.78
				c0,0.15-0.12,0.28-0.28,0.28c0,0,0,0-0.01,0H139.31z"/>
			<path class="st6" d="M145.01,22.17c-0.08,0-0.15-0.03-0.21-0.08c-0.05-0.05-0.08-0.12-0.08-0.2v-5.53c0-0.15,0.12-0.28,0.27-0.29
				H145h0.96c0.15,0,0.28,0.12,0.28,0.28c0,0,0,0,0,0.01v0.48c0.22-0.26,0.48-0.48,0.78-0.63c0.37-0.17,0.77-0.26,1.17-0.25
				c0.44-0.01,0.87,0.1,1.24,0.32c0.37,0.21,0.66,0.53,0.85,0.91c0.2,0.44,0.3,0.92,0.29,1.41v3.27c0,0.07-0.03,0.15-0.08,0.2
				c-0.05,0.05-0.12,0.08-0.2,0.08h-1.03c-0.15,0-0.28-0.12-0.28-0.28l0,0v-3.22c0.02-0.39-0.1-0.77-0.34-1.07
				c-0.25-0.27-0.6-0.41-0.97-0.39c-0.36-0.01-0.72,0.13-0.97,0.39c-0.26,0.29-0.39,0.68-0.36,1.07v3.22c0,0.07-0.03,0.14-0.08,0.2
				c-0.06,0.05-0.13,0.08-0.21,0.08L145.01,22.17z"/>
			<path class="st6" d="M154.73,22.29c-0.55,0.02-1.09-0.1-1.58-0.33c-0.41-0.2-0.74-0.52-0.97-0.92c-0.23-0.43-0.36-0.91-0.38-1.4
				c0-0.14,0-0.31,0-0.51s0-0.37,0-0.51c0.02-0.49,0.15-0.97,0.39-1.41c0.24-0.39,0.58-0.71,0.99-0.92
				c0.48-0.23,1.02-0.35,1.55-0.33c0.54-0.02,1.07,0.1,1.55,0.33c0.41,0.2,0.75,0.52,0.98,0.92c0.24,0.43,0.37,0.91,0.4,1.41
				c0,0.14,0,0.31,0,0.51s0,0.37,0,0.51c-0.02,0.49-0.15,0.97-0.38,1.4c-0.23,0.4-0.57,0.72-0.97,0.92
				C155.82,22.19,155.28,22.31,154.73,22.29z M154.73,21.13c0.36,0.02,0.72-0.13,0.96-0.4c0.25-0.33,0.38-0.74,0.37-1.16
				c0-0.12,0-0.26,0-0.45s0-0.34,0-0.45c0.01-0.42-0.12-0.82-0.37-1.16c-0.53-0.53-1.39-0.53-1.93,0c-0.25,0.33-0.38,0.74-0.37,1.16
				c0,0.12,0,0.26,0,0.45s0,0.34,0,0.45c-0.01,0.42,0.12,0.82,0.37,1.16C154.01,21.01,154.37,21.15,154.73,21.13z"/>
			<path class="st6" d="M159.25,22.17c-0.15,0-0.28-0.12-0.28-0.28l0,0v-5.53c0-0.08,0.03-0.15,0.08-0.21
				c0.05-0.05,0.12-0.08,0.2-0.08h0.92c0.07,0,0.15,0.03,0.2,0.08c0.06,0.05,0.09,0.13,0.09,0.21v0.37c0.18-0.23,0.4-0.42,0.66-0.56
				c0.3-0.16,0.64-0.24,0.99-0.24c0.78-0.08,1.52,0.34,1.86,1.04c0.19-0.31,0.46-0.56,0.78-0.73c0.7-0.38,1.54-0.38,2.24,0
				c0.34,0.2,0.61,0.5,0.78,0.86c0.21,0.46,0.31,0.96,0.29,1.46v3.29c0,0.15-0.12,0.28-0.28,0.28l0,0h-0.97
				c-0.15,0-0.28-0.12-0.28-0.28l0,0v-3.24c0.01-0.29-0.04-0.57-0.15-0.83c-0.08-0.19-0.23-0.34-0.41-0.44
				c-0.18-0.09-0.37-0.14-0.57-0.13c-0.18,0-0.36,0.05-0.52,0.13c-0.18,0.1-0.33,0.25-0.42,0.44c-0.12,0.26-0.18,0.55-0.17,0.83
				v3.24c0,0.07-0.03,0.15-0.08,0.2c-0.05,0.05-0.12,0.08-0.2,0.08h-0.96c-0.08,0-0.15-0.03-0.21-0.08c-0.06-0.05-0.1-0.12-0.1-0.2
				v-3.24c0.01-0.29-0.04-0.57-0.16-0.83c-0.09-0.19-0.24-0.34-0.42-0.44c-0.17-0.09-0.36-0.13-0.55-0.13
				c-0.18,0-0.37,0.05-0.53,0.14c-0.18,0.1-0.33,0.25-0.42,0.44c-0.12,0.26-0.17,0.54-0.16,0.83v3.24c0,0.15-0.12,0.28-0.28,0.28
				l0,0L159.25,22.17z"/>
			<path class="st6" d="M169.75,22.17c-0.07,0-0.15-0.03-0.2-0.08c-0.06-0.05-0.09-0.12-0.09-0.2v-1.16c0-0.08,0.03-0.16,0.09-0.21
				c0.05-0.05,0.12-0.08,0.2-0.08h1.17c0.07,0,0.15,0.03,0.2,0.08c0.05,0.06,0.08,0.13,0.08,0.21v1.13c0,0.07-0.03,0.14-0.08,0.2
				c-0.05,0.05-0.12,0.08-0.2,0.08L169.75,22.17z"/>
			<path class="st6" d="M172.89,22.17c-0.08,0-0.15-0.03-0.21-0.08c-0.05-0.05-0.08-0.12-0.08-0.2v-1.16c0-0.08,0.03-0.15,0.08-0.21
				c0.06-0.05,0.13-0.08,0.21-0.08h1.17c0.07,0,0.14,0.03,0.2,0.08c0.05,0.06,0.08,0.13,0.08,0.21v1.13c0,0.15-0.12,0.28-0.28,0.28
				l0,0L172.89,22.17z"/>
			<path class="st6" d="M176.03,22.17c-0.15,0-0.28-0.12-0.28-0.28l0,0v-1.16c0-0.08,0.03-0.15,0.08-0.21
				c0.05-0.05,0.12-0.08,0.2-0.08h1.18c0.07,0,0.14,0.03,0.2,0.08c0.05,0.06,0.08,0.13,0.08,0.21v1.13c0,0.15-0.12,0.28-0.28,0.28
				l0,0L176.03,22.17z"/>
		</g>
		<g>
			<path class="st7" d="M101.71,33.05c-0.06,0.2-0.2,0.35-0.36,0.48c-0.79,0.69-1.57,1.38-2.36,2.07c-0.07,0.06-0.09,0.11-0.07,0.21
				c0.25,1.07,0.49,2.14,0.73,3.2c0.06,0.28,0,0.52-0.23,0.69c-0.24,0.18-0.49,0.17-0.74,0.02c-0.94-0.56-1.87-1.12-2.81-1.68
				c-0.09-0.06-0.15-0.05-0.24,0c-0.93,0.56-1.87,1.12-2.8,1.68c-0.32,0.19-0.66,0.14-0.86-0.13c-0.13-0.17-0.16-0.36-0.11-0.56
				c0.24-1.07,0.48-2.14,0.73-3.2c0.02-0.1,0.01-0.17-0.08-0.24c-0.82-0.72-1.65-1.44-2.47-2.16c-0.21-0.19-0.3-0.42-0.21-0.69
				c0.08-0.26,0.28-0.41,0.56-0.44c0.66-0.06,1.31-0.12,1.97-0.18c0.46-0.04,0.91-0.08,1.37-0.12c0.07-0.01,0.11-0.04,0.13-0.1
				c0.43-1.01,0.86-2.02,1.29-3.03c0.11-0.25,0.28-0.41,0.56-0.44c0.29-0.02,0.52,0.13,0.65,0.43c0.4,0.92,0.8,1.85,1.18,2.78
				c0.11,0.27,0.24,0.38,0.53,0.4c0.98,0.07,1.95,0.17,2.93,0.25c0.36,0.03,0.61,0.18,0.71,0.54
				C101.71,32.89,101.71,32.97,101.71,33.05z"/>
			<path class="st7" d="M115.74,33.05c-0.06,0.2-0.2,0.35-0.36,0.48c-0.79,0.69-1.57,1.38-2.36,2.07c-0.07,0.06-0.09,0.11-0.07,0.21
				c0.25,1.07,0.49,2.14,0.73,3.2c0.06,0.28,0,0.52-0.23,0.69c-0.24,0.18-0.49,0.17-0.74,0.02c-0.94-0.56-1.87-1.12-2.81-1.68
				c-0.09-0.06-0.15-0.05-0.24,0c-0.93,0.56-1.87,1.12-2.8,1.68c-0.32,0.19-0.66,0.14-0.86-0.13c-0.13-0.17-0.16-0.36-0.11-0.56
				c0.24-1.07,0.48-2.14,0.73-3.2c0.02-0.1,0.01-0.17-0.08-0.24c-0.82-0.72-1.65-1.44-2.47-2.16c-0.21-0.19-0.3-0.42-0.21-0.69
				c0.08-0.26,0.28-0.41,0.56-0.44c0.66-0.06,1.31-0.12,1.97-0.18c0.46-0.04,0.91-0.08,1.37-0.12c0.07-0.01,0.11-0.04,0.13-0.1
				c0.43-1.01,0.86-2.02,1.29-3.03c0.11-0.25,0.28-0.41,0.56-0.44c0.29-0.02,0.52,0.13,0.65,0.43c0.4,0.92,0.8,1.85,1.18,2.78
				c0.11,0.27,0.24,0.38,0.53,0.4c0.98,0.07,1.95,0.17,2.93,0.25c0.36,0.03,0.61,0.18,0.71,0.54
				C115.74,32.89,115.74,32.97,115.74,33.05z"/>
			<path class="st7" d="M129.77,33.05c-0.06,0.2-0.2,0.35-0.36,0.48c-0.79,0.69-1.57,1.38-2.36,2.07c-0.07,0.06-0.09,0.11-0.07,0.21
				c0.25,1.07,0.49,2.14,0.73,3.2c0.06,0.28,0,0.52-0.23,0.69c-0.24,0.18-0.49,0.17-0.74,0.02c-0.94-0.56-1.87-1.12-2.81-1.68
				c-0.09-0.06-0.15-0.05-0.24,0c-0.93,0.56-1.87,1.12-2.8,1.68c-0.32,0.19-0.66,0.14-0.86-0.13c-0.13-0.17-0.16-0.36-0.11-0.56
				c0.24-1.07,0.48-2.14,0.73-3.2c0.02-0.1,0.01-0.17-0.08-0.24c-0.82-0.72-1.65-1.44-2.47-2.16c-0.21-0.19-0.3-0.42-0.21-0.69
				c0.08-0.26,0.28-0.41,0.56-0.44c0.66-0.06,1.31-0.12,1.97-0.18c0.46-0.04,0.91-0.08,1.37-0.12c0.07-0.01,0.11-0.04,0.13-0.1
				c0.43-1.01,0.86-2.02,1.29-3.03c0.11-0.25,0.28-0.41,0.56-0.44c0.29-0.02,0.52,0.13,0.65,0.43c0.4,0.92,0.8,1.85,1.18,2.78
				c0.11,0.27,0.24,0.38,0.53,0.4c0.98,0.07,1.95,0.17,2.93,0.25c0.36,0.03,0.61,0.18,0.71,0.54
				C129.77,32.89,129.77,32.97,129.77,33.05z"/>
			<path class="st7" d="M143.8,33.05c-0.06,0.2-0.2,0.35-0.36,0.48c-0.79,0.69-1.57,1.38-2.36,2.07c-0.07,0.06-0.09,0.11-0.07,0.21
				c0.25,1.07,0.49,2.14,0.73,3.2c0.06,0.28,0,0.52-0.23,0.69c-0.24,0.18-0.49,0.17-0.74,0.02c-0.94-0.56-1.87-1.12-2.81-1.68
				c-0.09-0.06-0.15-0.05-0.24,0c-0.93,0.56-1.87,1.12-2.8,1.68c-0.32,0.19-0.66,0.14-0.86-0.13c-0.13-0.17-0.16-0.36-0.11-0.56
				c0.24-1.07,0.48-2.14,0.73-3.2c0.02-0.1,0.01-0.17-0.08-0.24c-0.82-0.72-1.65-1.44-2.47-2.16c-0.21-0.19-0.3-0.42-0.21-0.69
				c0.08-0.26,0.28-0.41,0.56-0.44c0.66-0.06,1.31-0.12,1.97-0.18c0.46-0.04,0.91-0.08,1.37-0.12c0.07-0.01,0.11-0.04,0.13-0.1
				c0.43-1.01,0.86-2.02,1.29-3.03c0.11-0.25,0.28-0.41,0.56-0.44c0.29-0.02,0.52,0.13,0.65,0.43c0.4,0.92,0.8,1.85,1.18,2.78
				c0.11,0.27,0.24,0.38,0.53,0.4c0.98,0.07,1.95,0.17,2.93,0.25c0.36,0.03,0.61,0.18,0.71,0.54
				C143.8,32.89,143.8,32.97,143.8,33.05z"/>
			<path class="st8" d="M157.83,33.05c-0.06,0.2-0.2,0.35-0.36,0.48c-0.79,0.69-1.57,1.38-2.36,2.07c-0.07,0.06-0.09,0.11-0.07,0.21
				c0.25,1.07,0.49,2.14,0.73,3.2c0.06,0.28,0,0.52-0.23,0.69c-0.24,0.18-0.49,0.17-0.74,0.02c-0.94-0.56-1.87-1.12-2.81-1.68
				c-0.09-0.06-0.15-0.05-0.24,0c-0.93,0.56-1.87,1.12-2.8,1.68c-0.32,0.19-0.66,0.14-0.86-0.13c-0.13-0.17-0.16-0.36-0.11-0.56
				c0.24-1.07,0.48-2.14,0.73-3.2c0.02-0.1,0.01-0.17-0.08-0.24c-0.82-0.72-1.65-1.44-2.47-2.16c-0.21-0.19-0.3-0.42-0.21-0.69
				c0.08-0.26,0.28-0.41,0.56-0.44c0.66-0.06,1.31-0.12,1.97-0.18c0.46-0.04,0.91-0.08,1.37-0.12c0.07-0.01,0.11-0.04,0.13-0.1
				c0.43-1.01,0.86-2.02,1.29-3.03c0.11-0.25,0.28-0.41,0.56-0.44c0.29-0.02,0.52,0.13,0.65,0.43c0.4,0.92,0.8,1.85,1.18,2.78
				c0.11,0.27,0.24,0.38,0.53,0.4c0.98,0.07,1.95,0.17,2.93,0.25c0.36,0.03,0.61,0.18,0.71,0.54
				C157.83,32.89,157.83,32.97,157.83,33.05z"/>
		</g>
	</g>
</g>
</svg>
