<?xml version="1.0" encoding="utf-8"?>
<!-- Generator: Adobe Illustrator 24.0.0, SVG Export Plug-In . SVG Version: 6.00 Build 0)  -->
<svg version="1.1" id="Layer_1" xmlns="http://www.w3.org/2000/svg" xmlns:xlink="http://www.w3.org/1999/xlink" x="0px" y="0px"
	 viewBox="0 0 750 750" style="enable-background:new 0 0 750 750;" xml:space="preserve">
<style type="text/css">
	.st0{fill:#00B375;}
	.st1{fill:#292562;}
	.st2{fill:#272361;}
	.st3{fill:#FFFFFF;}
	.st4{fill:none;stroke:#FFFFFF;stroke-width:2;stroke-miterlimit:10;}
</style>
<path class="st0" d="M625.9,461.39c-51.23-21.46-97.89-15.6-135.56,24.8c-40.08,42.99-42.8,92.75-17.18,144.61
	c-60.11,34.4-172.53,34.45-234.97,0.14c25.71-52.31,22.94-102.36-17.81-145.46c-37.61-39.79-83.95-45.42-134.74-24.1
	c-11.19-32.98-15.75-66.51-13.94-100.75c2.15-40.71,2.48-40.98,41.24-53.86c171.49-56.96,341.93-53.88,511.36,9.12
	c8.16,3.04,11.81,6.91,13,15.93C643.1,375.81,639.75,418.73,625.9,461.39z"/>
<path class="st1" d="M626.17,288.55c-19.43-5.86-38.15-10.19-55.68-17.43c-7.53-3.11-13.9-11.43-18.51-18.81
	c-22.71-36.33-52.78-64.45-90.72-84.18c-47.31-24.6-97.21-30.38-149.51-21.53c-33.6,5.69-64.06,19.72-91.05,38.7
	c-27.11,19.07-49.19,44.54-65.74,74.16c-2.94,5.26-9.29,9.75-15.08,12.06c-12.97,5.17-26.54,8.87-39.96,12.83
	c-2.19,0.65-6.45,0.37-7.05-0.82c-1.54-3.11-3.15-7.66-1.94-10.4c6.92-15.73,13.46-31.82,22.32-46.47
	c37.21-61.5,90.52-103.4,159.13-124.5c44.41-13.66,90.11-17.51,136.03-7.72c77.74,16.59,140.29,55.95,184.05,123.61
	C606.66,240.02,617.8,263.1,626.17,288.55z"/>
<path class="st2" d="M496.71,618.04c-10.86-15.74-13.56-32.13-13.38-49.07c0.03-3.01,3.2-6.91,6-8.84
	c29.23-20.11,50.91-46.74,68.62-77.11c1.95-3.34,6.99-7.1,10.43-6.94c12.11,0.54,24.2,2.43,36.2,4.36
	c8.37,1.35,9.45,7.92,6.49,13.94C585.51,546.52,548.63,588.29,496.71,618.04z"/>
<path class="st2" d="M212.54,619.16c-19.32-15.76-39.45-30.63-57.74-47.49c-22.42-20.67-39-46.08-52.68-73.29
	c-5.68-11.3-4.68-13.6,7.72-16.44c10.17-2.33,20.51-3.89,30.78-5.79c7.32-1.36,11.2,2.63,14.4,8.59
	c16.03,29.84,38.05,54.55,65.69,74c8.68,6.11,9.77,12.75,5.72,21.58c-0.92,2-1.26,4.28-1.72,6.47c-2.09,10.09-4.12,20.19-6.18,30.29
	C216.53,617.76,214.53,618.46,212.54,619.16z"/>
<g>
	<path class="st3" d="M176.74,394.65c-7.85,0-14.45-1.75-19.81-5.26c-5.36-3.51-9.13-8.28-11.32-14.32l13.36-7.81
		c3.09,8.08,9.17,12.11,18.23,12.11c4.38,0,7.58-0.79,9.62-2.38s3.06-3.58,3.06-6c0-2.79-1.25-4.96-3.74-6.51
		c-2.49-1.55-6.94-3.23-13.36-5.04c-3.55-1.06-6.55-2.11-9-3.17c-2.45-1.06-4.91-2.47-7.36-4.25c-2.45-1.77-4.32-4.02-5.6-6.74
		c-1.28-2.72-1.92-5.89-1.92-9.51c0-7.17,2.55-12.89,7.64-17.15c5.09-4.26,11.23-6.4,18.4-6.4c6.41,0,12.06,1.57,16.93,4.7
		c4.87,3.13,8.66,7.49,11.38,13.08l-13.13,7.58c-3.17-6.79-8.23-10.19-15.17-10.19c-3.25,0-5.79,0.74-7.64,2.21
		c-1.85,1.47-2.77,3.38-2.77,5.72c0,2.49,1.04,4.51,3.11,6.06c2.07,1.55,6.06,3.23,11.94,5.04c2.42,0.76,4.25,1.34,5.49,1.75
		c1.25,0.42,2.94,1.06,5.09,1.92c2.15,0.87,3.81,1.68,4.98,2.43c1.17,0.76,2.51,1.77,4.02,3.06c1.51,1.28,2.66,2.6,3.45,3.96
		c0.79,1.36,1.47,3,2.04,4.92c0.57,1.92,0.85,4.02,0.85,6.28c0,7.32-2.66,13.13-7.98,17.43C192.2,392.5,185.27,394.65,176.74,394.65
		z"/>
	<path class="st3" d="M244.48,393.07l-20.98-79.25h16.34l15.25,58.76l16.53-58.76h13.53l16.6,58.61l15.04-58.61h15.05l-20.82,79.25
		h-17.77l-15.01-52.58l-14.91,52.58H244.48z"/>
	<path class="st3" d="M373.62,378.12h33.4v14.94H358v-79.25h48.46v14.94h-32.83v16.87h30v14.72h-30V378.12z"/>
	<path class="st3" d="M449.36,378.12h33.4v14.94h-49.02v-79.25h48.46v14.94h-32.83v16.87h30v14.72h-30V378.12z"/>
	<path class="st3" d="M540.95,313.82c10.87,0,19.94,3.81,27.23,11.43c7.28,7.62,10.92,17.02,10.92,28.19
		c0,11.17-3.64,20.57-10.92,28.19c-7.29,7.62-16.36,11.43-27.23,11.43h-31.47v-79.25H540.95z M540.95,378.12
		c6.87,0,12.45-2.28,16.76-6.85c4.3-4.57,6.45-10.51,6.45-17.83c0-7.32-2.15-13.26-6.45-17.83c-4.3-4.57-9.89-6.85-16.76-6.85H525.1
		v49.36H540.95z"/>
</g>
<g>
	<g>
		<path class="st3" d="M323.87,416.93h3.21v42.37h-3.21v-20.28h-24.63v20.28h-3.21v-42.37h3.21v19.07h24.63V416.93z"/>
		<path class="st3" d="M346.02,416.93h3.21v42.37h-3.21V416.93z"/>
		<path class="st3" d="M394.93,459.29l-10.21-17.37h-13.33v17.37h-3.21v-42.37h16.71c3.43,0,6.38,1.23,8.84,3.69
			c2.46,2.46,3.69,5.41,3.69,8.84c0,2.87-0.88,5.41-2.63,7.63c-1.75,2.22-3.99,3.69-6.69,4.42l10.53,17.79H394.93z M371.38,419.95
			v18.94h13.5c2.58,0,4.78-0.92,6.6-2.75c1.82-1.84,2.72-4.06,2.72-6.69c0-2.62-0.91-4.86-2.72-6.72c-1.82-1.86-4.02-2.78-6.6-2.78
			H371.38z"/>
		<path class="st3" d="M416.9,456.27h21.18v3.03h-24.39v-42.37h24.09v3.03H416.9v16.46h19.37v3.03H416.9V456.27z"/>
	</g>
</g>
<line class="st4" x1="206.41" y1="451.65" x2="283.9" y2="451.65"/>
<line class="st4" x1="449.96" y1="451.65" x2="527.45" y2="451.65"/>
</svg>
