<svg xmlns="http://www.w3.org/2000/svg" width="120" height="119.798" viewBox="0 0 120 119.798">
  <path id="bakery_icon" d="M68.8,13.713c-42.08,3.287-67.679,48.01-49.223,86,21.775,44.817,86.126,44.817,107.861,0,20.141-41.528-12.631-89.59-58.638-86m12.431,3.644c25.105,3.617,45.052,23.581,48.317,48.36.708,5.368.709,13.292,0,15.587-.336,1.093-2.685.851-4.071-.419l-.93-.851-.128-7.24c-.141-7.99-.214-8.392-1.831-10.1a6.544,6.544,0,0,0-10.557,1.6c-.539,1-.544,1.133-.669,19.647l-.126,18.642-.9.9a3.194,3.194,0,0,1-3.82.745c-1.844-.875-1.793-.553-1.933-12.186l-.126-10.422-.7-1.434a6.662,6.662,0,0,0-5.418-3.716l-.659,0L97.651,72.9c-.165-17.773-18.768-29.113-34.909-21.28A24.2,24.2,0,0,0,49.2,70.946C48.967,73.3,47.575,74,45.38,72.867c-1.616-.835-1.675-1.1-1.815-8.053-.118-5.871-.163-6.359-.68-7.327a6.787,6.787,0,0,0-12.176.284c-.573,1.243-.579,1.369-.653,12.521-.082,12.33-.049,12.063-1.582,12.856-3.026,1.564-4.244-.33-4.244-6.6,0-7.115-1.763-9.864-6.324-9.864-.842,0-.826.241-.212-3.158,5.394-29.873,33.734-50.464,63.543-46.17M64.576,22.614C59.373,24.5,58.8,25,58.783,27.69c-.019,3.831,2.669,4.612,8.6,2.5,5.3-1.889,5.992-2.521,5.761-5.309-.309-3.72-2.765-4.37-8.572-2.268M48.327,24.306a4.012,4.012,0,0,0,1.893,7.579A3.95,3.95,0,0,0,53.8,25.993a3.879,3.879,0,0,0-5.472-1.687m48.352.029c-5.04,2.34-2.893,9.926,2.658,9.393,4.364-.419,5.847-6.5,2.179-8.926a6.06,6.06,0,0,0-4.837-.467m-26.871.893c0,.794-6.866,3.337-7.528,2.788-.707-.587.024-1.077,3.416-2.29,3.715-1.329,4.111-1.377,4.111-.5M50.822,27.351a.745.745,0,0,1-1.1,1.008c-.463-.463-.478-.656-.083-1.051a.718.718,0,0,1,1.179.044m49,.409a1.557,1.557,0,1,1-1.13-.5,1.867,1.867,0,0,1,1.13.5m-63.4,8.4c-3.637.985-4.082,1.166-4.819,1.971a4.021,4.021,0,0,0,2.057,6.6c1.168.225,8.835-1.609,9.907-2.371a4,4,0,0,0-.492-6.757c-1.492-.752-1.974-.712-6.653.554m43.936,1.494c-3.036.342-3.531.525-4.483,1.657a4.033,4.033,0,0,0,1.864,6.312c1.354.405,9.035-.351,10.145-1a4.068,4.068,0,0,0,.808-6.264l-.933-.933-2.319-.042a47.679,47.679,0,0,0-5.082.27M41.818,38.7c.545.656-.14,1.008-3.876,1.992-3.171.835-3.525.883-3.884.524-.648-.648.028-1.02,3.606-1.984,3.867-1.041,3.745-1.026,4.154-.532m13.844,1.116c-1.742.41-6.544,6.982-6.763,9.254a3.939,3.939,0,0,0,5.535,3.964c1.063-.453,1.477-.939,4.072-4.781L60.7,45.009l-.1-1.589a3.767,3.767,0,0,0-4.932-3.607m30.762,1.148c.275.717-.349.922-3.947,1.292-3.78.389-4.952.174-4.048-.742.7-.712,7.748-1.2,8-.55m19.283.462a4.129,4.129,0,0,0-1.743,5.838,49.04,49.04,0,0,0,7.084,6.02,3.982,3.982,0,0,0,5.352-4.9c-.237-.878-.76-1.456-3.47-3.828-4.043-3.538-5.165-4.025-7.222-3.128m-48.33,2.144c0,1.069-4.251,6.7-4.876,6.461-.664-.255-.471-.733,1.4-3.455,2.546-3.711,3.48-4.519,3.48-3.006m53.1,3.3c3.048,2.654,3.125,2.752,2.539,3.238-.464.385-.509.356-3.581-2.308-2.936-2.546-2.982-2.6-2.573-3.093.467-.563.522-.53,3.615,2.163M77.416,52.769C94,56.186,100.23,76.275,88.4,88.174A21.013,21.013,0,0,1,52.676,77.115c-2.7-14.183,10.591-27.261,24.74-24.346m21.131,1.3a4.694,4.694,0,0,0,2.146,8.849,4.761,4.761,0,0,0,3.145-8.373,4.475,4.475,0,0,0-5.291-.476M22.462,55.7c-4.044,2.041-2.2,8.3,2.324,7.9A4.211,4.211,0,0,0,26.5,55.711a4.017,4.017,0,0,0-4.036-.013m79.267,1.574a1.264,1.264,0,0,1-.1,2.068,1.425,1.425,0,0,1-1.81-2.2c.666-.666,1.148-.634,1.911.13M38.78,57.8c1.357,1.142,1.386,1.292,1.52,7.883l.126,6.153.731,1.32a6.822,6.822,0,0,0,7.626,3.219c.49-.156.558-.087.558.553a22.428,22.428,0,0,0,2.146,7.068c9.449,19.632,37.7,17.953,45.075-2.679.642-1.8,1.34-2.047,2.957-1.061,1.738,1.059,1.794,1.447,1.8,12.4.006,10.878.033,11.1,1.609,12.888a6.665,6.665,0,0,0,11.184-1.683c.5-1.1.511-1.571.517-19.215.005-17.03.032-18.135.464-18.941a3.071,3.071,0,0,1,5.557.087c.477.985.514,1.532.519,7.7.007,9.155,1.149,11.323,6.174,11.727l1.549.124-.705,2.688c-8.47,32.282-43.984,50.433-74.972,38.317-21.29-8.325-35.054-27.47-36.407-50.642-.307-5.257.118-6.286,2.23-5.4,1.722.719,1.923,1.414,1.924,6.659,0,5.558.16,6.23,1.876,7.954a6.064,6.064,0,0,0,9.545-1l.76-1.229.126-11.584c.115-10.616.163-11.642.579-12.275A3.457,3.457,0,0,1,38.78,57.8m-13.691,1a.953.953,0,0,1-.7,1.614,1.075,1.075,0,0,1-.911-1,.9.9,0,0,1,1.615-.61m6.231,42.055c-1.546.622-1.247,2.183.851,4.436,1.433,1.538,3.106,1.206,3.106-.617,0-.6-2.12-3.827-2.513-3.827a2.23,2.23,0,0,1-.543-.11,1.654,1.654,0,0,0-.9.118m6.154,7.839c-2.906,2.22,8.981,10.832,19.9,14.421,7.018,2.306,10.547,2.471,10.548.491,0-1.216-.54-1.526-3.767-2.155a49.352,49.352,0,0,1-23.08-11.42c-1.915-1.7-2.731-2-3.6-1.338M81.486,121.7c-.483.119-2.675.357-4.869.53-4.371.343-4.674.463-4.674,1.852,0,1.583.652,1.762,5.11,1.4,6.745-.542,8.2-1,8.2-2.556,0-1.344-1.42-1.808-3.767-1.23" transform="translate(-13.5 -13.523)" fill-rule="evenodd"/>
</svg>
