<svg xmlns="http://www.w3.org/2000/svg" width="27.518" height="27.471" viewBox="0 0 27.518 27.471">
  <g id="bakery" transform="translate(-13.5 -13.523)">
    <path id="path0" d="M26.182,13.566a13.751,13.751,0,1,0,13.446,19.72,13.756,13.756,0,0,0-13.446-19.72m2.851.836A13.005,13.005,0,0,1,40.113,29.066c-.077.251-.616.2-.934-.1l-.213-.2-.029-1.66c-.032-1.832-.049-1.924-.42-2.315a1.5,1.5,0,0,0-2.421.367c-.124.229-.125.26-.153,4.505l-.029,4.275-.207.207a.732.732,0,0,1-.876.171c-.423-.2-.411-.127-.443-2.795l-.029-2.39-.161-.329a1.528,1.528,0,0,0-1.242-.852H32.8l-.008-.82a5.571,5.571,0,0,0-11.111-.448c-.053.54-.372.7-.876.44-.37-.192-.384-.252-.416-1.847-.027-1.346-.037-1.458-.156-1.68a1.556,1.556,0,0,0-2.792.065c-.131.285-.133.314-.15,2.871-.019,2.827-.011,2.766-.363,2.948-.694.359-.973-.076-.973-1.513,0-1.631-.4-2.262-1.45-2.262-.193,0-.189.055-.049-.724A13.035,13.035,0,0,1,29.033,14.4m-3.82,1.206c-1.193.432-1.325.548-1.328,1.164,0,.878.612,1.058,1.973.573,1.216-.433,1.374-.578,1.321-1.217-.071-.853-.634-1-1.966-.52M21.486,16a.92.92,0,0,0,.434,1.738.906.906,0,0,0,.821-1.351A.89.89,0,0,0,21.486,16M32.574,16a1.131,1.131,0,1,0,1.109.107A1.39,1.39,0,0,0,32.574,16m-6.162.2a3.37,3.37,0,0,1-1.726.639c-.162-.135.006-.247.783-.525.852-.3.943-.316.943-.114m-4.354.487a.171.171,0,0,1-.251.231c-.106-.106-.11-.15-.019-.241a.165.165,0,0,1,.27.01m11.236.094a.357.357,0,1,1-.259-.115.428.428,0,0,1,.259.115M18.756,18.714c-.834.226-.936.267-1.105.452a.922.922,0,0,0,.472,1.514,8.119,8.119,0,0,0,2.272-.544.916.916,0,0,0-.113-1.55c-.342-.172-.453-.163-1.526.127m10.075.343c-.7.079-.81.12-1.028.38a.925.925,0,0,0,.427,1.447,7.454,7.454,0,0,0,2.326-.229.933.933,0,0,0,.185-1.436L30.528,19,30,19a10.933,10.933,0,0,0-1.165.062m-8.837.238c.125.151-.032.231-.889.457-.727.191-.808.2-.891.12-.149-.149.006-.234.827-.455.887-.239.859-.235.953-.122m3.175.256a4.407,4.407,0,0,0-1.551,2.122.9.9,0,0,0,1.269.909c.244-.1.339-.215.934-1.1l.5-.743-.023-.364a.864.864,0,0,0-1.131-.827m7.054.263c.063.165-.08.211-.905.3-.867.089-1.136.04-.928-.17a3.756,3.756,0,0,1,1.834-.126m4.422.106a.947.947,0,0,0-.4,1.339,11.246,11.246,0,0,0,1.624,1.38A.913.913,0,0,0,37.1,21.516c-.054-.2-.174-.334-.8-.878-.927-.811-1.184-.923-1.656-.717m-11.083.492a3.93,3.93,0,0,1-1.118,1.482c-.152-.058-.108-.168.32-.792.584-.851.8-1.036.8-.689m12.176.756c.7.608.717.631.582.743-.106.088-.117.082-.821-.529-.673-.584-.684-.6-.59-.709.107-.129.12-.122.829.5m-7.581,1.354a4.825,4.825,0,1,1-5.673,5.583,4.869,4.869,0,0,1,5.673-5.583m4.846.3a1.076,1.076,0,0,0,.492,2.029,1.092,1.092,0,0,0,.721-1.92A1.026,1.026,0,0,0,33,22.821m-17.447.374a.966.966,0,1,0,.926,0,.921.921,0,0,0-.926,0m18.177.361a.29.29,0,0,1-.023.474.327.327,0,0,1-.415-.5c.153-.153.263-.145.438.03m-14.435.12c.311.262.318.3.349,1.808l.029,1.411.168.3a1.564,1.564,0,0,0,1.749.738c.112-.036.128-.02.128.127a5.143,5.143,0,0,0,.492,1.621,5.6,5.6,0,0,0,10.336-.614c.147-.412.307-.469.678-.243.4.243.411.332.413,2.842,0,2.494.008,2.545.369,2.955a1.528,1.528,0,0,0,2.565-.386c.114-.253.117-.36.118-4.406,0-3.905.007-4.159.107-4.343a.7.7,0,0,1,1.274.02c.109.226.118.351.119,1.765,0,2.1.263,2.6,1.416,2.689l.355.029-.162.616A13,13,0,0,1,14.259,27.78c-.07-1.205.027-1.441.511-1.239.395.165.441.324.441,1.527,0,1.274.037,1.429.43,1.824a1.39,1.39,0,0,0,2.189-.23L18,29.38l.029-2.656c.026-2.434.037-2.67.133-2.815a.793.793,0,0,1,1.131-.233m-3.139.228a.218.218,0,0,1-.161.37.247.247,0,0,1-.209-.23.206.206,0,0,1,.37-.14m1.429,9.644c-.355.143-.286.5.2,1.017.329.353.712.276.712-.142a2.463,2.463,0,0,0-.576-.878.511.511,0,0,1-.125-.025.379.379,0,0,0-.207.027M19,35.345c-.666.509,2.059,2.484,4.564,3.307,1.609.529,2.419.567,2.419.113,0-.279-.124-.35-.864-.494a11.317,11.317,0,0,1-5.293-2.619c-.439-.39-.626-.46-.826-.307M29.09,38.329c-.111.027-.613.082-1.117.121-1,.079-1.072.106-1.072.425,0,.363.149.4,1.172.322,1.547-.124,1.88-.228,1.88-.586,0-.308-.326-.415-.864-.282" transform="translate(0 0)" fill-rule="evenodd"/>
  </g>
</svg>
