<svg xmlns="http://www.w3.org/2000/svg" width="18.367" height="27.194" viewBox="0 0 18.367 27.194">
  <g id="bbq" transform="translate(-64.874 0.075)">
    <path id="path0" d="M73.375-.013a5.288,5.288,0,0,0-2.818,1.555l-.341.347-.262-.235a.976.976,0,0,0-1.234-.183,18.339,18.339,0,0,0-1.936,1.985,1.039,1.039,0,0,0,.27,1.121l.222.241-.452.463a5.172,5.172,0,0,0-.432,6.84c.23.282.235.3.174.483a1.428,1.428,0,0,0,.687,1.677c.14.061.217.135.218.209a4.725,4.725,0,0,1-.862.041c-1.326,0-1.85.4-1.716,1.29.119.8.547.988,2.207.992l1.088,0,.186.277a5.456,5.456,0,0,0,2.535,1.9.671.671,0,0,1,.226.093c0,.014-.277,1.1-.616,2.413-.663,2.571-.658,2.534-.37,2.723a.406.406,0,0,0,.534-.1c.041-.063.317-1.059.613-2.212s.574-2.223.618-2.376l.079-.279h.394c.271,0,.394.02.394.064,0,.255-1.727,6.722-1.823,6.827-.345.377-.737-.005-.6-.586.158-.674.078-.89-.328-.89-.312,0-.593.578-.592,1.218a1.251,1.251,0,0,0,2.187.811c.216-.24.229-.277.6-1.75l.261-1.022h5.694l.087.347c.063.252.072.375.032.45a1.715,1.715,0,1,0,2.7-.657l-.248-.219-.593-2.309c-.326-1.27-.6-2.347-.617-2.394-.018-.061.037-.1.2-.152a5.154,5.154,0,0,0,3.439-4.3c.177-1.541-.074-2.071-.985-2.071h-.331l-.02-.544c-.034-.916-.282-1.154-1.2-1.154-.679,0-.886.181-.693.605.078.172.152.2.63.239l.4.032v.8l-3.783.014-3.783.014v-.847l2.6-.015,2.6-.015.118-.118a.431.431,0,0,0-.006-.607,33.917,33.917,0,0,0-5.769.038c-.318.237-.364.356-.383.983l-.018.58H70.869c-1.555,0-1.7-.007-1.745-.093S69.8,11.7,73.84,7.655c5.3-5.306,4.931-4.889,4.778-5.455A5.134,5.134,0,0,0,76.567.415a5.972,5.972,0,0,0-3.192-.428m1.859.87a4.018,4.018,0,0,1,2.083,1.154l.482.462L73.136,7.138,68.473,11.8l-.274-.073a1.388,1.388,0,0,0-.84.042c-.171.092-.683-.651-.945-1.371a4.227,4.227,0,0,1,.557-3.969c.366-.512,4.715-4.8,5.1-5.033A4.52,4.52,0,0,1,75.234.857M69.476,2.383l.118.126-.847.845L67.9,4.2l-.161-.154c-.225-.215-.246-.18.645-1.073.858-.86.846-.853,1.091-.591m6,4.771A1.291,1.291,0,0,0,75.5,8.822c.2.273.21.437.055.655a.442.442,0,0,0,.2.725c.626.138,1.024-1.1.558-1.736-.313-.429-.328-.5-.168-.783.349-.622-.211-1.065-.669-.53m1.98-.046a1.3,1.3,0,0,0-.025,1.666c.212.3.236.513.08.713-.29.371.086.9.488.685a1.29,1.29,0,0,0,.2-1.82c-.25-.373-.252-.384-.075-.722.292-.558-.25-.981-.669-.522m1.984-.023a1.279,1.279,0,0,0-.069,1.651c.234.351.261.549.1.751a.434.434,0,1,0,.68.535,1.4,1.4,0,0,0-.076-1.774c-.16-.19-.158-.294.009-.615.28-.536-.245-.982-.647-.549M68.23,12.727a.43.43,0,0,1,.033.6.487.487,0,0,1-.894-.287.481.481,0,0,1,.862-.317m14.147,1.391a4.965,4.965,0,0,1-.327,1.646l-.085.2H68.707l-.111-.279c-.31-.776-.356-1.32-.119-1.418a1.417,1.417,0,0,0,.6-.6l.1-.2H82.407l-.031.65M67.638,15.525a2.221,2.221,0,0,1,.085.292l.029.146h-.875c-1.073,0-1.323-.109-1.073-.466.079-.114.115-.118.93-.118h.848l.056.146m13.7,1.38a4.4,4.4,0,0,1-2.211,1.369l-.517.131H75.337c-3.7,0-3.734,0-4.609-.426a4.824,4.824,0,0,1-1.346-1.01l-.111-.156h6.058c5.753,0,6.055,0,6.007.093m-4.312,2.548.267,1.031c.119.458.216.858.216.889a14.471,14.471,0,0,1-2.177.057c-1.2,0-2.177-.015-2.177-.033s.123-.508.274-1.088l.274-1.055h3.271l.051.2m2.235,2,.564,2.177-.242.06a3.779,3.779,0,0,0-.387.118c-.138.055-.147.049-.2-.14-.365-1.391-1.119-4.342-1.119-4.377a.945.945,0,0,1,.408-.03l.408.016.564,2.177m-1.413,1.166a3.894,3.894,0,0,1,.086.4,22.209,22.209,0,0,1-2.608.055H72.717l.032-.119c.017-.066.06-.245.094-.4l.063-.279H77.76l.086.343m2.4,1.988a.859.859,0,1,1-.7,0,.7.7,0,0,1,.7,0" transform="translate(0 0)" fill-rule="evenodd"/>
  </g>
</svg>
