<svg xmlns="http://www.w3.org/2000/svg" width="24.991" height="23" viewBox="0 0 24.991 23">
  <g id="Burger" transform="translate(0.241 -15.996)">
    <path id="path0" d="M11.433,16c-6.565.3-10.9,2.418-11.567,5.65-.27,1.307.027,2.238.825,2.59.146.065.2.115.185.167s-.069.2-.123.343A2.338,2.338,0,0,0,.748,26.1l.1.274L.7,26.553A2.14,2.14,0,0,0,.981,29.6a.35.35,0,0,1,.159.317,1.54,1.54,0,0,0,.113.455l.112.272-.3.106c-1.181.425-1.584,1.62-1.128,3.35.318,1.207,1.39,2.766,1.9,2.766.405,0,.517-.435.192-.744C.66,34.811.085,32.384.987,31.694c.353-.27.571-.306,1.841-.306H3.961l.016,1.134.016,1.134.15.317a1.949,1.949,0,0,0,3.568-.158,4.071,4.071,0,0,0,.108-1.081c.03-.96.018-.926.36-.981a.8.8,0,0,0,.372-.2l.186-.168h2.27l.381.364a2.581,2.581,0,0,0,3.78-.031l.345-.333h3.658c4,0,3.941,0,4.344.288a1.05,1.05,0,0,1,.436.674c.107.771.838.766.787-.006a1.886,1.886,0,0,0-1.334-1.617l-.247-.086.112-.272a1.537,1.537,0,0,0,.113-.443c0-.141.032-.192.18-.293a2.266,2.266,0,0,0,.312-3l-.195-.258.1-.285a2.288,2.288,0,0,0-.065-1.471l-.126-.259.226-.105a1.648,1.648,0,0,0,.933-1.66c0-3.14-2.905-5.323-8.279-6.23-.987-.167-1.2-.118-1.2.272,0,.293.107.349.924.485,4.59.76,7.209,2.381,7.7,4.769.184.893.052,1.41-.421,1.638l-.216.1H1.268l-.216-.1c-.97-.47-.5-2.573.857-3.852,2.048-1.926,6.869-3.094,11.751-2.846.79.04.895,0,.895-.346,0-.311-.141-.393-.734-.429-.73-.044-1.96-.071-2.388-.051m.367,1.836c-.964.971-.314,2.639.84,2.157.907-.379.589-2.364-.378-2.364-.237,0-.272.016-.463.207m-5.575-.033c-1.217.607-1.221,2.231,0,2.232.567,0,.9-.365,1.02-1.114.154-.981-.3-1.477-1.015-1.119m11.282.016c-.721.32-.22,1.959.656,2.147a.944.944,0,0,0,1.124-1.17,1.8,1.8,0,0,0-1.78-.976M6.389,19.065c-.051.122-.1.176-.175.176-.211,0-.163-.221.115-.529l.1-.114.015.146a.8.8,0,0,1-.059.322m5.963-.27c.108.36.044.542-.163.463-.111-.042-.042-.652.073-.652.018,0,.059.085.09.189m6.125.166a.146.146,0,0,1-.113.231c-.1,0-.345-.35-.345-.485,0-.073.388.142.458.254M9.151,20.22c-.915.465-1.126,1.885-.334,2.245.754.342,1.362-.137,1.366-1.077,0-1-.42-1.478-1.032-1.168m5.483.05a1.768,1.768,0,0,0-.043,1.952.979.979,0,0,0,1.62-.264c.32-.847-.936-2.192-1.577-1.688M9.4,21.545c-.032.161-.133.254-.234.215s-.089-.216.058-.466l.132-.224.035.171a.925.925,0,0,1,.009.3m6.014-.082c.081.151.083.175.015.243-.159.16-.257.039-.316-.392l-.033-.244.122.112a1.28,1.28,0,0,1,.212.28M5.6,25.427c1.18,1.166,1.515,1.384,2.38,1.551l.425.082-.088.127c-.193.277-.21.428-.231,2.078-.024,1.862,0,1.709-.268,1.751-.622.1-.743.337-.776,1.517-.037,1.326-.31,1.73-1.169,1.73-.895,0-1.122-.434-1.122-2.141,0-1.341,0-1.347.331-1.392.785-.108.954-.472.929-2-.019-1.172-.054-1.311-.429-1.685s-.486-.406-1.929-.417c-1.463-.012-1.549-.031-1.894-.414a1.173,1.173,0,0,1,.061-1.672l.157-.132h2.6L5.6,25.427m5.345-.319c-1.629,1.6-2.915,1.592-4.561-.024l-.683-.67h5.951l-.707.694m11.733-.571a1.18,1.18,0,0,1-.245,1.94l-.2.105-5.9.013-5.9.013.287-.215c.158-.118.682-.612,1.164-1.1l.878-.883h9.74l.165.126M2.388,27.39c.186.024.795.044,1.354.045,1.113,0,1.2.022,1.367.3.122.207.106.219-.283.2-.468-.021-.593.035-1.647.731l-.821.542L2.1,29.179a1.255,1.255,0,0,1-.835-2.025l.119-.141.336.167a2.2,2.2,0,0,0,.673.21m21.067.151a1.372,1.372,0,0,1-.245,1.307c-.363.4-.592.383-1.241-.1-1.1-.817-1.859-.784-2.515.112-.537.733-.6.721-2.276-.388-1.207-.8-1.458-.771-2.835.344-1.125.911-1.011.909-2.174.039-1.491-1.114-1.869-1.16-2.884-.349l-.366.292-.014-.519c-.026-.952-.721-.865,6.987-.879,6.974-.013,6.656,0,7.062-.287L23.116,27l.132.142a1.2,1.2,0,0,1,.207.4M5.072,28.784l.166.079V29.3c0,.5-.1.675-.39.675s-.781.365-.781.578c0,.04-.238.056-.845.056H2.378l-.124-.134c-.38-.413-.372-.5.047-.5.361,0,.475-.058,1.549-.782.767-.518.9-.561,1.222-.407m11.264.092c.424.25.5.12-.821,1.4-1.624,1.573-2.051,1.756-3.04,1.3a27.794,27.794,0,0,1-2.6-2.487c0-.078.465-.336.606-.336.189,0,.274.053,1.2.742,1.51,1.122,1.744,1.118,3.171-.05.977-.8,1.049-.827,1.485-.57m4.625.154a5.518,5.518,0,0,1,.534.368,2.478,2.478,0,0,0,1,.526c.145,0,.077.2-.163.483l-.172.2H16.288l.531-.533.531-.533.3.195c.979.642,1.754.561,2.333-.244.349-.485.655-.63.979-.463M10.213,30.594c0,.007-.3.013-.659.013H8.9v-.378c0-.367,0-.382.159-.51l.159-.132.5.5c.275.273.5.5.5.51m13.721,3.1a.927.927,0,0,0-.159.329c-.526,2.007-2.636,3.512-5.61,4a100.923,100.923,0,0,1-11.257.08,10.648,10.648,0,0,1-3.271-.909c-.577-.276-.7-.293-.865-.124-.689.689,2,1.7,4.994,1.885,1.409.085,9.188.03,9.952-.071,3.634-.481,5.941-2,6.758-4.439.155-.463.158-.565.027-.732a.388.388,0,0,0-.569-.019" transform="translate(0)" fill-rule="evenodd"/>
  </g>
</svg>
