<svg xmlns="http://www.w3.org/2000/svg" width="120" height="147.043" viewBox="0 0 120 147.043">
  <path id="coffee" d="M53.136.828C52,1.888,51.853,2.3,50.809,7.4c-.478,2.33-.933,4.518-1.013,4.862-.14.606-.29.629-4.69.718-7.6.153-8.381,1.14-8.371,10.559.009,8.624,1.318,10.634,6.926,10.64,1.888,0,1.582-.756,2.581,6.386l.632,4.517-.728.573a5,5,0,0,0-1.662,3.858c0,2.025,10.6,75.946,11.032,76.965a5.454,5.454,0,0,0,2.671,2.6c.723.218.656-.065,1.668,7.013.982,6.868,1.763,8.419,5.076,10.075l1.758.878H96.584c32.378,0,31.2.057,33.4-1.682,2.343-1.853,2.832-3.128,3.819-9.95.474-3.275.861-6,.861-6.064s.154-.109.341-.109c.738,0,2.282-1.354,2.835-2.485.613-1.257,11.184-74.19,11.184-77.167a5.035,5.035,0,0,0-1.649-3.925l-.714-.562.752-5.246c.414-2.885.752-5.343.751-5.461s.742-.216,1.65-.217c5.775-.006,7.051-2.085,6.914-11.271l-.093-6.2-.862-1.222c-1.528-2.168-2.7-2.559-7.656-2.559a38.948,38.948,0,0,1-4.263-.118c0-.609-2.108-9.9-2.41-10.622A4.335,4.335,0,0,0,140.18.617L139.313,0H54.022l-.886.828m85.13,7.788.868,4.308H71.086l-.665.625a2.376,2.376,0,0,0-.116,3.149l.549.678,40.387.143c35.482.126,40.42.2,40.659.575.518.819.348,10.363-.194,10.962-.681.752-108.671.829-109.743.078-.843-.59-1.006-10.345-.187-11.164.393-.393,1.745-.451,10.469-.451,10.727,0,11.2-.057,11.765-1.429,1.007-2.43-.243-3.166-5.374-3.166-3.443,0-4.1-.069-4.1-.428,0-.419,1.36-7.122,1.589-7.829.092-.285,8.485-.359,40.695-.359H137.4l.868,4.308M143.43,35.11c-.247,1.423-1.3,8.826-1.3,9.134,0,.169-17.056.272-45.331.272H51.468l-.641-4.667c-.353-2.567-.705-4.893-.783-5.169-.135-.477,2.227-.5,46.7-.5h46.845l-.162.933m1,14.67c0,.673-10.205,72.884-10.509,74.36l-.163.79H123.022c-7.411,0-10.956.1-11.451.327A2.26,2.26,0,0,0,110.561,128c.569,1.5.6,1.5,10.344,1.511l9.073.009-.77,5.253c-.818,5.572-1.151,6.5-2.614,7.255-1.342.694-58.562.617-59.742-.08-1.43-.845-3.126-7.307-3.126-11.912,0-.49.955-.515,19.87-.515h19.87l.665-.625a2.293,2.293,0,0,0-.092-3.375c-.751-.59-.939-.6-22.384-.6-15.369,0-21.684-.091-21.822-.315-.207-.335-10.753-73.748-10.753-74.853V49.11h95.349v.669M97.062,64.931C82.069,67.873,71.51,85.644,77.547,97.776c5.522,11.1,21.75,11.514,32.18.829,15.258-15.63,7.018-37.536-12.665-33.674m8.04,4.744a16.42,16.42,0,0,1,1.8.605c.131.079-.645.734-1.723,1.456A21.893,21.893,0,0,0,96.6,82.3c-1.988,4.876-5.13,8.5-11.024,12.709-3.342,2.387-3.227,2.4-4.311-.436-4.669-12.206,11.092-28.667,23.841-24.9m6.723,5.559c4.544,8.966-3.816,22.994-15.491,25.994-3.727.958-11.459-.046-9.643-1.252,7.108-4.72,11.993-10.105,14.056-15.5,1.569-4.1,3.606-6.577,7.655-9.307,2.483-1.674,2.544-1.673,3.423.063" transform="translate(-36.735)" fill-rule="evenodd"/>
</svg>
