<svg xmlns="http://www.w3.org/2000/svg" width="19.328" height="27.333" viewBox="0 0 19.328 27.333">
  <g id="Dessert" transform="translate(-58.51 -0.032)">
    <path id="path0" d="M62.894.137c-.27.27-.158.487.518,1,.462.352.55.494.55.89,0,.208-.013.226-.2.293a2.6,2.6,0,1,0,1.267-.157h-.2L64.8,1.813C64.726.868,63.362-.331,62.894.137M74.771.13c-.321.146-.326.158-1.2,2.975-.446,1.436-.827,2.639-.845,2.673s-.175-.058-.421-.268c-1.316-1.121-3.774-2-4.173-1.5-.258.328-.054.635.477.717a6.369,6.369,0,0,1,5.339,6.016v.28h-.934c-1.072,0-1.148.028-1.148.419s.038.405,1.571.435l1.347.027.2.15a.9.9,0,0,1-.057,1.48l-.193.133-6.891.016c-3.79.009-7,0-7.122-.017a.918.918,0,0,1-.581-1.43c.257-.337.356-.357,1.819-.357,1.546,0,1.69-.041,1.69-.485,0-.317-.178-.369-1.26-.369h-1l.032-.547a6.315,6.315,0,0,1,.845-2.726c.292-.47.182-.859-.243-.859-.579,0-1.472,2.271-1.472,3.743,0,.268-.021.4-.067.412A1.779,1.779,0,0,0,59.289,13.6c.032.076.012.093-.113.094-.633,0-.81.742-.549,2.3a9.249,9.249,0,0,0,6.817,7.366l.494.119,0,.539,0,.539-1.667.828c-1.574.781-1.672.839-1.766,1.03a.626.626,0,0,0,.151.768l.177.177h4.813c5.332,0,5.03.02,5.207-.352a.719.719,0,0,0-.052-.7,10.614,10.614,0,0,0-1.734-.942l-1.649-.812,0-.543,0-.543.307-.063a9.25,9.25,0,0,0,6.952-7.09c.37-1.818.209-2.625-.524-2.625h-.158l.1-.268a1.787,1.787,0,0,0-.86-2.229l-.308-.148L75.685,8.6c.827-2.647.836-2.687.639-2.884-.257-.258-.608-.13-.735.268l-.068.212-.988.228c-.543.125-1.026.222-1.072.215A14.921,14.921,0,0,1,74.182,4.1c.032-.032,1.975-.487,2.1-.491.045,0,.033.089-.04.3q-.3.873.291.873c.334,0,.354-.038.857-1.648C78.1.856,78.128.927,76.279.356,75.11,0,75.078-.009,74.771.13M76.1,1.2c.467.146.856.273.866.282a4.426,4.426,0,0,1-.154.583l-.171.566-1.067.243c-.587.134-1.074.236-1.082.228A18.878,18.878,0,0,1,75.2.938c.029,0,.435.12.9.265M65.327,3.109a1.705,1.705,0,1,1-1.614.224l.222-.162.015.151c.031.317.071.4.232.467.36.151.634-.069.634-.509,0-.3.06-.324.511-.171m4,3.441c-.324.254.035.9.5.9a.43.43,0,0,0,.31-.728c-.347-.307-.577-.356-.81-.173m5.591,1.587a4.937,4.937,0,0,1-.34.931,3.371,3.371,0,0,1-.178-.468,7.6,7.6,0,0,0-.317-.788l-.176-.361L74.1,7.4c.284-.076,1.1-.254,1.111-.243s-.124.446-.29.981m-7.446-.143c-.35.379-.23.845.218.845a.754.754,0,0,0,.591-.654c0-.461-.46-.57-.809-.191m-3.384.122c-.252.252-.155.538.278.824.674.447,1.089-.212.457-.726-.333-.271-.535-.3-.735-.1m6.08.749c-.273.191-.193.541.178.776.405.257.818.135.818-.242a.724.724,0,0,0-1-.534m-3.746,2.287a.449.449,0,0,0-.014.578l.1.126,2.082.015,2.082.015.149-.128a.42.42,0,0,0,.026-.63c-.116-.094-.251-.1-2.217-.1H66.543l-.116.124m.044,5.008v1.608l-.12-.034a9.452,9.452,0,0,0-2.05-.3.431.431,0,0,0-.341.706c.095.12.156.137.627.17,1.228.085,1.884.283,1.884.567A1.6,1.6,0,0,0,68.742,20.2c.26-.134.719-.569.719-.681a2.613,2.613,0,0,1,.834-.055,9.737,9.737,0,0,0,3.943-.793c.426-.175.775-.309.775-.3a7.762,7.762,0,0,1-.691,1.079,8.261,8.261,0,0,1-12.5.871A7.344,7.344,0,0,1,60.5,18.636c.023-.023,1.415-.216,1.926-.266.391-.039.575-.176.575-.431,0-.488-.353-.519-2.362-.2a2.526,2.526,0,0,1-.569.051,7.721,7.721,0,0,1-.682-2.66l-.034-.574h7.117V16.16m4.218-1.3a1.164,1.164,0,0,1-1.146,1.191c-.606,0-.723.266-.723,1.65,0,1.247-.025,1.377-.315,1.621a.691.691,0,0,1-1.059-.168c-.121-.181-.121-.185-.121-2.389V14.552h3.364v.3m5.31.057a7.569,7.569,0,0,1-.468,2.24,25.138,25.138,0,0,1-2.452,1.032,7.557,7.557,0,0,1-2.457.41l-.948.03V16.915l.307-.061a1.932,1.932,0,0,0,1.553-1.862l.02-.44h4.477l-.032.36M68.553,24.27c0,.884-.095.787,1.569,1.6l1.394.683-3.844,0-3.844,0,1.393-.685c1.665-.818,1.57-.722,1.57-1.607V23.6h1.762v.669" transform="translate(0 0)" fill-rule="evenodd"/>
  </g>
</svg>
