<svg xmlns="http://www.w3.org/2000/svg" width="22.818" height="22.807" viewBox="0 0 22.818 22.807">
  <g id="Dumplings" transform="translate(-5.133 -6.081)">
    <path id="path0" d="M16.838,1.056l-3.5.971L13,1.849a5.578,5.578,0,0,1-.64-.407c-.685-.52-.972-.532-1.546-.065a5.067,5.067,0,0,1-1.194.69c-.6.271-.715.406-.62.751.138.5,1.2.215,2.3-.615.208-.157.243-.17.318-.116a7.413,7.413,0,0,0,1.655.929,4.735,4.735,0,0,1,1.223.8L14.672,4H12.936c-1.725,0-1.737,0-1.959.1a1.358,1.358,0,0,0-.05,2.449c.179.1.23.1,2.143.12l1.96.022-.165.183a2.3,2.3,0,0,1-.924.534,31.054,31.054,0,0,1-4.547.046A1.762,1.762,0,0,1,7.768,5.772a.46.46,0,0,0-.913.1,2.616,2.616,0,0,0,2.1,2.456,28.707,28.707,0,0,0,5.182,0,2.75,2.75,0,0,0,1.8-1.359l.147-.3h6.623l.117-.118a.491.491,0,0,0,0-.656l-.117-.118H17.155c-6.367,0-6.021.025-6.021-.445s-.346-.445,6.021-.445h5.554l.117-.118a.492.492,0,0,0,0-.656L22.709,4l-3.1-.011-3.1-.011,3.113-.858c3.464-.955,3.314-.9,3.314-1.281a.416.416,0,0,0-.357-.449c-.116-.017-1.065.228-3.7.956l-3.543.979-.223-.212c-.123-.116-.29-.265-.371-.331-.1-.079-.128-.126-.089-.14s1.41-.393,3.06-.847S20.76.946,20.806.922a.451.451,0,0,0-.255-.841c-.131,0-1.583.384-3.714.976M7.577,3.574a.461.461,0,1,0,.31-.111.445.445,0,0,0-.31.111M6.966,9.163a2.837,2.837,0,0,0-.449.3,6.349,6.349,0,0,1-1.356.749,4.006,4.006,0,0,0-2.527,3.1l-.025.3-.325.016c-.649.033-.822.3-.822,1.268v.675l-.234.02a1.239,1.239,0,0,0-.993.683,42.921,42.921,0,0,0,0,5.924,1.434,1.434,0,0,0,.582.582c.278.138,21.155.138,21.433,0a1.434,1.434,0,0,0,.582-.582,42.921,42.921,0,0,0,0-5.924,1.239,1.239,0,0,0-.993-.683l-.234-.02V14.9c0-.969-.173-1.235-.822-1.268l-.325-.016-.025-.3a3.766,3.766,0,0,0-1.53-2.537,6.912,6.912,0,0,0-1.4-.76,5.29,5.29,0,0,1-.936-.543c-.645-.523-.952-.526-1.582-.015a6.16,6.16,0,0,1-1.385.763,4.6,4.6,0,0,0-1.873,1.465c-.2.292-.186.292-.393-.008a4.727,4.727,0,0,0-1.9-1.47,6.352,6.352,0,0,1-1.356-.749A1.354,1.354,0,0,0,7.3,9.08a.964.964,0,0,0-.334.083m.446.985A6.387,6.387,0,0,0,8.872,11c1.351.616,2.172,1.552,2.172,2.476v.148H3.557v-.148A3.115,3.115,0,0,1,5.664,11.03a6.792,6.792,0,0,0,1.452-.825c.193-.171.193-.171.3-.057m8.467,0A6.386,6.386,0,0,0,17.34,11c1.351.616,2.172,1.552,2.172,2.476v.148H12.024v-.148a3.115,3.115,0,0,1,2.107-2.446,6.792,6.792,0,0,0,1.452-.825c.193-.171.193-.171.3-.057m4.791,4.9v.535H2.354v-1.07H20.67v.535m1.222,1.556.115.108v5.049l-.115.108-.115.108H1.286l-.124-.124-.124-.124V16.751l.106-.113c.151-.161-.585-.151,10.464-.145l10.169.005.115.108" transform="translate(5 6)" fill-rule="evenodd"/>
  </g>
</svg>
