<svg id="svg" xmlns="http://www.w3.org/2000/svg" xmlns:xlink="http://www.w3.org/1999/xlink" width="400" height="400" viewBox="0, 0, 400,400"><g id="svgg"><path id="path0" d="M33.907 21.801 C 27.497 24.712,27.008 26.250,26.556 44.922 L 26.159 61.328 13.012 86.927 L -0.136 112.525 0.166 128.723 C 0.621 153.155,7.101 164.539,23.222 169.225 L 27.344 170.423 27.344 251.112 L 27.344 331.800 20.391 332.250 C 4.186 333.300,0.044 338.870,0.017 359.645 C -0.001 373.950,0.523 376.105,4.547 378.259 C 7.430 379.802,392.570 379.802,395.453 378.259 C 399.477 376.105,400.001 373.950,399.983 359.645 C 399.956 338.870,395.814 333.300,379.609 332.250 L 372.656 331.800 372.656 251.112 L 372.656 170.423 376.778 169.225 C 392.899 164.539,399.379 153.155,399.834 128.723 L 400.136 112.525 386.988 86.927 L 373.841 61.328 373.444 44.922 C 373.063 29.171,372.972 28.411,371.171 25.886 C 366.882 19.872,379.211 20.349,227.583 20.330 L 92.275 20.313 90.321 22.070 C 87.439 24.663,87.293 28.706,89.991 31.220 C 91.698 32.810,91.923 32.813,226.319 32.813 L 360.938 32.813 360.938 44.141 L 360.938 55.469 200.000 55.469 L 39.063 55.469 39.063 44.141 L 39.063 32.813 54.150 32.813 C 72.108 32.813,73.294 32.338,72.703 25.391 C 72.260 20.184,43.357 17.509,33.907 21.801 M71.094 68.652 C 71.094 69.276,59.700 101.421,57.698 106.445 L 56.842 108.594 36.621 108.594 L 16.400 108.594 26.563 88.281 L 36.725 67.969 53.909 67.969 C 63.361 67.969,71.094 68.276,71.094 68.652 M120.307 68.555 C 120.295 69.797,111.865 107.927,111.528 108.264 C 111.332 108.460,102.028 108.526,90.852 108.412 L 70.532 108.203 77.281 89.453 C 80.992 79.141,84.272 70.088,84.568 69.336 C 85.135 67.899,120.321 67.129,120.307 68.555 M169.168 71.680 C 168.939 73.721,168.394 80.840,167.959 87.500 C 167.523 94.160,166.961 101.631,166.709 104.102 L 166.253 108.594 145.626 108.594 C 132.303 108.594,125.000 108.315,125.000 107.807 C 125.000 106.910,132.709 70.437,133.214 68.945 C 133.466 68.202,137.846 67.969,151.565 67.969 L 169.585 67.969 169.168 71.680 M218.298 72.070 C 218.541 74.326,219.096 81.621,219.531 88.281 C 219.966 94.941,220.521 102.236,220.764 104.492 L 221.206 108.594 200.000 108.594 L 178.794 108.594 179.236 104.492 C 179.479 102.236,180.034 94.941,180.469 88.281 C 180.904 81.621,181.459 74.326,181.702 72.070 L 182.144 67.969 200.000 67.969 L 217.856 67.969 218.298 72.070 M270.837 87.500 C 273.103 98.027,274.966 107.080,274.978 107.617 C 274.995 108.374,270.365 108.594,254.374 108.594 L 233.747 108.594 233.291 104.102 C 233.039 101.631,232.477 94.160,232.041 87.500 C 231.606 80.840,231.060 73.714,230.830 71.665 L 230.411 67.940 248.564 68.150 L 266.717 68.359 270.837 87.500 M322.312 88.281 L 329.471 108.203 309.150 108.412 C 297.973 108.526,288.668 108.460,288.472 108.264 C 288.132 107.924,279.705 69.792,279.693 68.540 C 279.690 68.210,287.667 68.034,297.420 68.149 L 315.153 68.359 322.312 88.281 M373.438 88.281 L 383.600 108.594 363.379 108.594 L 343.158 108.594 342.302 106.445 C 340.300 101.421,328.906 69.276,328.906 68.652 C 328.906 68.276,336.639 67.969,346.091 67.969 L 363.275 67.969 373.438 88.281 M55.345 131.539 C 54.887 147.211,50.544 154.231,39.283 157.505 C 23.593 162.066,12.500 150.973,12.500 130.720 L 12.500 121.094 34.075 121.094 L 55.650 121.094 55.345 131.539 M110.782 131.445 C 110.189 148.510,104.369 156.494,91.205 158.298 C 77.138 160.226,67.969 149.387,67.969 130.830 L 67.969 121.094 89.555 121.094 L 111.141 121.094 110.782 131.445 M166.406 128.256 C 166.406 145.552,161.737 154.096,150.454 157.447 C 134.667 162.135,123.460 151.346,123.445 131.445 L 123.438 121.094 144.922 121.094 L 166.406 121.094 166.406 128.256 M221.086 131.445 C 221.073 149.291,214.078 158.150,200.000 158.150 C 185.922 158.150,178.927 149.291,178.914 131.445 L 178.906 121.094 200.000 121.094 L 221.094 121.094 221.086 131.445 M276.555 131.445 C 276.540 151.346,265.333 162.135,249.546 157.447 C 238.263 154.096,233.594 145.552,233.594 128.256 L 233.594 121.094 255.078 121.094 L 276.563 121.094 276.555 131.445 M332.031 130.830 C 332.031 149.387,322.862 160.226,308.795 158.298 C 295.631 156.494,289.811 148.510,289.218 131.445 L 288.859 121.094 310.445 121.094 L 332.031 121.094 332.031 130.830 M387.500 130.720 C 387.500 150.973,376.407 162.066,360.717 157.505 C 349.456 154.231,345.113 147.211,344.655 131.539 L 344.350 121.094 365.925 121.094 L 387.500 121.094 387.500 130.720 M73.278 167.106 C 86.496 173.849,102.923 171.370,113.214 161.080 L 117.057 157.236 120.833 161.080 C 133.573 174.051,155.538 174.076,168.479 161.134 L 172.408 157.205 176.061 160.982 C 188.704 174.055,211.296 174.055,223.939 160.982 L 227.592 157.205 231.521 161.134 C 244.462 174.076,266.427 174.051,279.167 161.080 L 282.943 157.236 286.786 161.080 C 299.942 174.235,321.735 174.167,334.774 160.929 L 338.485 157.161 342.338 161.014 C 346.351 165.027,351.180 167.875,356.836 169.567 L 360.156 170.560 360.156 251.296 L 360.156 332.031 250.000 332.031 L 139.844 332.031 139.844 265.586 C 139.844 192.245,140.105 196.097,134.923 192.937 C 131.407 190.793,60.253 190.545,55.794 192.661 C 49.616 195.593,50.000 190.764,50.000 265.522 L 50.000 332.031 44.922 332.031 L 39.844 332.031 39.844 251.296 L 39.844 170.560 43.164 169.567 C 48.834 167.871,53.672 165.013,57.576 161.053 L 61.328 157.247 65.660 161.338 C 68.042 163.588,71.471 166.184,73.278 167.106 M158.139 192.163 C 156.084 192.994,152.474 197.243,151.927 199.474 C 150.498 205.296,151.989 300.716,153.541 302.794 C 157.554 308.168,150.867 307.813,248.035 307.811 C 345.681 307.810,338.902 308.196,342.758 302.424 L 344.531 299.769 344.531 249.677 C 344.531 202.655,344.444 199.422,343.104 196.923 C 340.091 191.305,340.925 191.406,297.530 191.406 L 258.707 191.406 257.088 193.465 C 254.329 196.972,255.557 201.677,259.599 203.086 C 261.107 203.612,274.539 203.906,296.992 203.906 L 332.031 203.906 332.031 249.609 L 332.031 295.313 248.047 295.313 L 164.063 295.313 164.063 249.632 L 164.063 203.951 200.369 203.733 L 236.676 203.516 238.416 201.775 C 240.825 199.366,240.792 194.844,238.351 192.868 C 236.395 191.285,161.929 190.630,158.139 192.163 M127.344 267.969 L 127.344 332.031 94.922 332.031 L 62.500 332.031 62.500 267.969 L 62.500 203.906 94.922 203.906 L 127.344 203.906 127.344 267.969 M107.813 256.250 C 106.448 257.614,106.250 258.854,106.250 266.016 C 106.250 275.493,107.207 277.344,112.109 277.344 C 117.011 277.344,117.969 275.493,117.969 266.016 C 117.969 256.538,117.011 254.688,112.109 254.688 C 110.417 254.688,108.780 255.283,107.813 256.250 M385.719 347.083 C 387.786 349.150,387.893 349.633,388.165 358.216 L 388.450 367.188 200.000 367.188 L 11.550 367.188 11.833 358.282 C 12.132 348.860,12.890 346.873,16.797 345.267 C 17.656 344.914,100.529 344.692,200.959 344.773 L 383.558 344.922 385.719 347.083 " stroke="none" fill="#000000" fill-rule="evenodd"></path></g></svg>