<svg xmlns="http://www.w3.org/2000/svg" width="15.106" height="25.335" viewBox="0 0 15.106 25.335">
  <g id="liquors" transform="translate(-80.966 -0.03)">
    <path id="path0" d="M85.658.1c-.527.23-.666.54-.813,1.818-.126,1.1-.115,1.237.117,1.506l.165.191-.189.4A4.042,4.042,0,0,0,84.56,6.28l-.02,1.277-.428.307c-.747.536-.858.726-.581,1,.2.2.354.163.9-.23.8-.576.909-.715.909-1.156V7.255h2.97v.26c0,.456.07.524,1.682,1.688,1.817,1.311,1.683,1.127,1.683,2.318v.934l-.2.394a1.32,1.32,0,0,0-.2.642v.249h-.25c-.24,0-.266-.015-.67-.368a5.138,5.138,0,0,0-7.084.007c-.4.353-.411.361-.673.361h-.267l.023-.245c.021-.217,0-.287-.18-.616l-.2-.372V10.53l.13-.154a3.032,3.032,0,0,1,.44-.376c.323-.23.371-.294.371-.5,0-.368-.419-.463-.81-.183-.86.614-.894.7-.912,2.17l-.015,1.188.192.4.192.4-.119,1.8c-.118,1.785-.118,1.8-.023,1.931a.411.411,0,0,0,.61,0,15.238,15.238,0,0,0,.242-2.544v-.129h.94l.409-.377a4.329,4.329,0,0,1,6.325-.07l.5.447h.918l.085,1.4c.047.769.1,1.493.113,1.609l.028.21H90.63c-1.193,0-1.528.143-1.528.651v.141H83.763l-.1.13a.378.378,0,0,0,.159.61c.1.034,1.066.052,2.765.052H89.2V19.5a1.979,1.979,0,0,0,.031.322c.029.147.023.155-.127.155a.349.349,0,0,0-.391.246c-.108.309.092.546.461.546.178,0,.194.047.24.691.013.188-.26.206-2.838.188-2.808-.02-2.726,0-3.636-.8-.391-.344-.4-.346-.718-.365l-.325-.018.064-1c.072-1.114.06-1.18-.217-1.272a.418.418,0,0,0-.482.172c-.082.213-.344,4.864-.291,5.171a2.226,2.226,0,0,0,1.246,1.633l.374.179,5.915.015c4.252.011,5.969,0,6.106-.041a1.321,1.321,0,0,0,.7-.659,29.9,29.9,0,0,0,.422-3.623.409.409,0,0,0-.63-.123c-.1.1-.123.179-.2.843l-.037.322-2.289.013a10.466,10.466,0,0,1-2.289-.052c0-.036-.089-.81-.2-1.721s-.2-1.684-.2-1.718a16.268,16.268,0,0,1,2.7-.062c1.484,0,2.7.017,2.7.037s-.032.271-.068.557c-.083.657.01.891.351.891.284,0,.364-.167.45-.941.144-1.3.139-1.306-2.03-1.325-.892-.008-1.622-.019-1.623-.025s-.066-.973-.145-2.15l-.143-2.139.182-.354.182-.354.015-1.112c.023-1.687.1-1.572-1.946-3.049l-1.386-1L89.1,6.314a4.337,4.337,0,0,0-.392-2.308l-.188-.4.138-.1c.293-.217.321-.426.2-1.5C88.648.15,88.522.027,86.839.03A4.711,4.711,0,0,0,85.658.1m1.971.724c.258.072.309.2.4,1.037.045.395.1.79.11.879l.028.161H86.855a11.79,11.79,0,0,1-1.317-.037c0-.185.212-1.746.249-1.834.1-.237,1.262-.366,1.842-.205m.2,3.214a2.38,2.38,0,0,1,.186.4,5.53,5.53,0,0,1-1.215.051H85.583l.206-.4.206-.4h1.647l.186.344m.453,1.317a4.027,4.027,0,0,1,.03.619v.54H85.34V5.275h1.455c1.281,0,1.459.009,1.485.078m-2.022,7.993c-1.587.248-2.687,1.462-2.457,2.71.514,2.788,5.6,2.761,6.046-.032.256-1.593-1.613-2.988-3.59-2.679m1.365.87c1.4.415,1.883,1.619,1,2.482-1.224,1.191-3.8.671-4.045-.816-.187-1.145,1.57-2.1,3.048-1.666M83.9,20.07c-.359.291-.082.7.475.7.572,0,.843-.367.505-.684a1.148,1.148,0,0,0-.98-.014m1.7-.061c-.242.1-.23.589.017.7a8.6,8.6,0,0,0,2.465-.046.409.409,0,0,0,.022-.588,11.042,11.042,0,0,0-2.5-.068m-3.031,1.58a3.716,3.716,0,0,0,1.337.747,52.614,52.614,0,0,0,5.3.079l.328-.044.11.968c.06.533.128,1.042.151,1.131l.041.163-3.474-.015L82.89,24.6l-.272-.133c-.79-.386-.933-.763-.84-2.222l.063-.986h.178c.148,0,.241.056.549.325m12.177,1.445a3.794,3.794,0,0,1-.276,1.446l-.122.124-1.63.015c-2.223.02-2.121.063-2.226-.931-.033-.313-.072-.619-.086-.681l-.026-.111h4.367v.138" transform="translate(0)" fill-rule="evenodd"/>
  </g>
</svg>
