<svg xmlns="http://www.w3.org/2000/svg" width="120" height="201.259" viewBox="0 0 120 201.259">
  <path id="liquor" d="M118.237.573c-4.188,1.823-5.29,4.29-6.458,14.443-1,8.71-.914,9.823.932,11.96l1.311,1.517-1.5,3.161c-2.631,5.526-2.828,6.713-3,18.021l-.155,10.142-3.4,2.441c-5.936,4.258-6.812,5.769-4.617,7.964,1.6,1.6,2.815,1.291,7.148-1.829,6.358-4.578,7.222-5.677,7.222-9.186V57.424H139.3l.007,2.064c.011,3.62.555,4.165,13.363,13.409,14.433,10.417,13.369,8.951,13.369,18.41v7.421l-1.573,3.129c-1.211,2.408-1.573,3.583-1.573,5.1v1.974h-1.982c-1.9,0-2.116-.116-5.324-2.921-17.137-14.983-39.379-14.96-56.276.056-3.158,2.807-3.267,2.865-5.349,2.865H91.841l.187-1.943c.166-1.72,0-2.284-1.434-4.9l-1.621-2.953V83.436L90,82.214a24.08,24.08,0,0,1,3.5-2.986c2.566-1.831,2.943-2.339,2.943-3.963,0-2.922-3.329-3.676-6.435-1.457-6.833,4.88-7.1,5.522-7.247,17.235l-.116,9.437,1.526,3.146,1.525,3.146-.948,14.316c-.939,14.178-.94,14.326-.187,15.335a3.262,3.262,0,0,0,4.846.037c.636-.873,1.925-14.406,1.925-20.206v-1.027H98.8l3.247-2.995c15.955-14.718,34.213-14.921,50.243-.557l3.963,3.551h7.292l.676,11.109c.372,6.109.778,11.86.9,12.779l.225,1.671h-7.614c-9.475,0-12.136,1.134-12.136,5.169v1.122h-42.41l-.815,1.036a3,3,0,0,0,1.264,4.842c.769.268,8.468.413,21.966.413h20.782v1.327a15.726,15.726,0,0,0,.246,2.556c.234,1.171.187,1.229-1.009,1.229-1.729,0-2.62.561-3.107,1.958-.856,2.455.732,4.333,3.664,4.333,1.412,0,1.542.373,1.907,5.491.107,1.494-2.063,1.638-22.541,1.49-22.309-.161-21.658-.017-28.88-6.375-3.105-2.734-3.141-2.752-5.7-2.9l-2.579-.145.51-7.918c.57-8.846.48-9.377-1.723-10.1-1.428-.472-3.4.229-3.832,1.364-.65,1.694-2.731,38.637-2.314,41.074a17.685,17.685,0,0,0,9.9,12.974l2.971,1.418,46.989.117c33.777.085,47.414-.006,48.5-.322a10.492,10.492,0,0,0,5.548-5.232c.861-2.3,3.809-27.589,3.355-28.784-.692-1.817-3.515-2.37-5.008-.979-.826.77-.98,1.422-1.579,6.693l-.29,2.556-18.186.1c-14.785.083-18.185.006-18.185-.413,0-.283-.707-6.434-1.571-13.668s-1.572-13.374-1.573-13.644c0-.387,4.546-.491,21.428-.491,11.786,0,21.421.132,21.411.294s-.253,2.153-.538,4.424c-.656,5.217.076,7.078,2.785,7.078,2.257,0,2.893-1.33,3.573-7.476,1.147-10.35,1.106-10.377-16.124-10.529-7.083-.062-12.883-.151-12.889-.2s-.523-7.731-1.149-17.078L169.249,106.6l1.445-2.813,1.444-2.813.12-8.83c.181-13.4.762-12.488-15.455-24.217l-11.01-7.963-.218-10.018c-.244-11.188-.511-12.766-3.112-18.333l-1.5-3.2,1.1-.81c2.329-1.722,2.55-3.385,1.585-11.929C141.989.979,140.991.005,127.619.031c-5.938.011-8.5.159-9.383.542M133.9,6.327c2.052.57,2.451,1.592,3.217,8.237.361,3.136.756,6.277.877,6.979l.22,1.278H127.748a93.657,93.657,0,0,1-10.464-.295c0-1.471,1.683-13.873,1.978-14.568.8-1.882,10.027-2.911,14.635-1.631m1.573,25.531A18.907,18.907,0,0,1,136.945,35c0,.269-3.267.407-9.654.407h-9.654l1.637-3.146,1.636-3.146,6.543.007,6.542.007,1.475,2.732m3.6,10.459a31.992,31.992,0,0,1,.239,4.915v4.293H115.712V41.7h11.557c10.176,0,11.586.074,11.8.622M123,105.808c-12.605,1.973-21.341,11.613-19.514,21.531,4.081,22.148,44.454,21.935,48.028-.253,2.037-12.653-12.815-23.737-28.514-21.278m10.841,6.91c11.121,3.3,14.958,12.861,7.915,19.718-9.721,9.463-30.2,5.332-32.13-6.481-1.483-9.094,12.471-16.721,24.215-13.237m-29.579,46.505c-2.853,2.31-.652,5.547,3.772,5.547,4.547,0,6.7-2.915,4.014-5.437-1.258-1.181-6.374-1.254-7.786-.11m13.5-.481c-1.923.774-1.827,4.682.136,5.577,1.982.9,18.354.6,19.578-.363a3.252,3.252,0,0,0,.176-4.675c-.833-.777-18.134-1.245-19.89-.539M93.691,171.294a29.517,29.517,0,0,0,10.618,5.933c2.518.744,37.387,1.261,42.125.624l2.607-.351.872,7.692c.48,4.231,1.02,8.275,1.2,8.988l.328,1.295-27.6-.116-27.6-.115-2.163-1.057c-6.279-3.07-7.408-6.057-6.673-17.649l.5-7.836,1.417.009c1.176.008,1.918.446,4.365,2.582m96.731,11.482c0,3.945-1.259,10.54-2.192,11.486l-.971.983-12.95.118c-17.659.161-16.85.5-17.682-7.392-.262-2.487-.57-4.92-.684-5.407l-.208-.884h34.688v1.1" transform="translate(-80.966 -0.03)" fill-rule="evenodd"/>
</svg>
