<svg xmlns="http://www.w3.org/2000/svg" width="21.691" height="21.731" viewBox="0 0 21.691 21.731">
  <g id="meals" transform="translate(-39.78 -39.116)">
    <path id="path0" d="M50.163,39.231a.784.784,0,0,0-.088.261c-.067.371-.259.466-.948.466-.908,0-1.29.184-1.493.716a1.123,1.123,0,0,0,1.07,1.537c.2.015.416.039.482.053a.61.61,0,0,1,.329.527c0,.285.4.426.527.186.331-.618-.37-1.378-1.27-1.378-.462,0-.73-.323-.576-.695.122-.3.312-.362,1.025-.363.922,0,1.342-.258,1.435-.881.061-.408-.276-.7-.493-.428m3.117,0c-.206.206-.053.462.325.543a.507.507,0,0,1,.405.479c0,.445-.2.554-1.015.555-1.252,0-1.772.43-1.829,1.51-.031.585.041.764.3.764.242,0,.319-.161.319-.665,0-.811.229-.99,1.313-1.027,1.121-.039,1.507-.323,1.507-1.11,0-.713-.93-1.446-1.328-1.047m-3.289,5.106A1.723,1.723,0,0,0,49.379,47l.139.144-.12.023-.7.131A10.255,10.255,0,0,0,40.366,57.39v.5h-.227a.542.542,0,0,0-.291.063,14.864,14.864,0,0,0,0,2.835c.049.049,2.515.063,10.778.063s10.729-.014,10.778-.063a14.864,14.864,0,0,0,0-2.835.542.542,0,0,0-.291-.063h-.227V57.37a10.282,10.282,0,0,0-8.409-10.088c-.276-.047-.556-.1-.622-.11l-.12-.024L51.873,47a1.687,1.687,0,0,0-1.882-2.67m1.225.678a1.059,1.059,0,0,1,.062,1.708,1.054,1.054,0,1,1-.062-1.708m.1,2.721a9.737,9.737,0,0,1,8.99,9.8v.357H40.932l.035-.719a9.686,9.686,0,0,1,9.554-9.478c.073,0,.43.017.793.045m1.01,1.818c-.182.219-.054.478.259.528a6.851,6.851,0,0,1,5,4.422c.136.424.215.529.4.529.741,0-.241-2.195-1.586-3.545-1.18-1.185-3.7-2.381-4.067-1.934m8.562,9.816v.9H40.367v-1.8H60.886v.9" fill-rule="evenodd"/>
  </g>
</svg>
