<svg xmlns="http://www.w3.org/2000/svg" width="26.752" height="23.49" viewBox="0 0 26.752 23.49">
  <g id="Newari" transform="translate(-0.017 -24.64)">
    <path id="path0" d="M14.741,24.667c-3.007.267-3.054,2.809-.088,4.733,1.615,1.048,4.422,1.863,4.782,1.389.249-.328-.008-.607-.66-.716a8.971,8.971,0,0,1-4.7-2.224c-1.272-1.273-.972-2.15.806-2.352.737-.084.863-.046.863.259,0,1.555,3.768,3.008,4.925,1.9l.144-.138.214.206c1.059,1.019,1.068,1.921.024,2.269-.5.167-.654.479-.372.761.154.154.286.16.665.029,1.914-.658,1.75-2.684-.337-4.183a2.087,2.087,0,0,1-.4-.4,4.727,4.727,0,0,0-3.375-1.464c-.374-.008-.879-.029-1.123-.047l-.679-.05a5.7,5.7,0,0,0-.689.023m-10.11.778c-1.07.385-1.855,1.8-1.317,2.373a6.674,6.674,0,0,0,2.554.713c.553-.149.587-.407.234-1.75-.389-1.478-.584-1.655-1.471-1.336m13.621.294a3.516,3.516,0,0,1,1.71,1.035c.485.681-1.313.559-2.548-.174-.391-.232-.85-.692-.824-.827.049-.255.908-.273,1.662-.035M5.261,26.908c.1.386.18.709.172.717S4.026,27.28,4,27.255a1.93,1.93,0,0,1,.444-.714,1.824,1.824,0,0,1,.621-.345c.005.005.093.326.2.712m3.619.9a6.746,6.746,0,0,0-.714,2.549c.161.561.4.594,1.755.238s1.464-.431,1.422-1.01c-.088-1.225-1.763-2.433-2.463-1.777m1.1.962a1.5,1.5,0,0,1,.463.615l.075.179L9.8,29.75c-.392.1-.72.182-.728.174s.071-.335.174-.728l.188-.714.186.078a1.943,1.943,0,0,1,.355.207m-4.685,2.47a1.983,1.983,0,0,0,.439,2.816c1.021.7,2.692.233,2.516-.7a14.106,14.106,0,0,0-2.127-2.236.7.7,0,0,0-.827.124M7.24,33.5a1.182,1.182,0,0,1-1.479-1.39l.06-.154.755.754c.61.609.738.761.664.79m12.785-1.468a1.943,1.943,0,0,0-1.437,1.544l-.032.216-.338.027A1.053,1.053,0,0,0,17.155,35c0,.349-.009.386-.091.354a1.907,1.907,0,0,0-1.283.02c-.127.048-.165.038-.287-.076a1.687,1.687,0,0,0-1.918-.151l-.182.124-.182-.124a1.688,1.688,0,0,0-1.918.151c-.138.128-.144.129-.366.048a1.638,1.638,0,0,0-1.933.632l-.153.207-.4.006a1.825,1.825,0,0,0-.6.09c-.188.081-.206.08-.472-.042a2.407,2.407,0,0,0-3.371,2l-.037.33L3.7,38.66a2.388,2.388,0,0,0-1.626,2.5l.031.379H1.5c-1.079,0-1.483.345-1.486,1.27,0,1.008.377,1.253,1.985,1.282l1.123.02.261.367a11.357,11.357,0,0,0,4.625,3.5L8.3,48.1l3.37.016c1.854.009,3.447,0,3.54-.015a.405.405,0,0,0,.271-.672l-.107-.136-3.459-.015-3.459-.014L7.8,46.947A9.97,9.97,0,0,1,4.81,44.826a6.078,6.078,0,0,1-.614-.67c0-.035,3.081-.052,9.2-.052s9.2.018,9.2.052a6.078,6.078,0,0,1-.614.67,9.97,9.97,0,0,1-2.992,2.121l-.653.318-.745.018c-.91.022-1.225.272-.849.675a3.156,3.156,0,0,0,2.04.012,11.312,11.312,0,0,0,4.583-3.43l.324-.426,1.112-.02c1.6-.028,1.976-.276,1.973-1.281,0-.958-.4-1.27-1.6-1.27h-.716l.241-.171a1.181,1.181,0,0,0,.253-1.889l-.152-.146.154-.243a1.686,1.686,0,0,0-1.081-2.71.6.6,0,0,1-.469-.226l-.192-.2.11-.294c.369-.987-.129-1.857-1.066-1.858h-.21l-.065-.274a1.778,1.778,0,0,0-1.949-1.5m.452.832c.312,0,.7.688.741,1.321.042.618.135.682.751.524.663-.17.835.253.394.969-.3.48-.254.743.145.895l.153.058-.17.1-.17.1-.229-.2a1.093,1.093,0,0,0-1.157-.246,1.884,1.884,0,0,1-.207.078c-.011,0-.02-.446-.02-.99,0-1.072-.044-1.235-.34-1.26-.488-.042-.5-.016-.5,1.55v1.338l-.174-.254a1.719,1.719,0,0,0-1.009-.647c-.191-.04-.28-.084-.28-.138a1.514,1.514,0,0,0-.192-.391c-.489-.793-.259-1.169.57-.931.4.116.526-.011.57-.585.06-.778.557-1.45.976-1.32a.581.581,0,0,0,.144.022m-7.791,2.955a1.211,1.211,0,0,1,.337.287.419.419,0,0,0,.739,0,.764.764,0,0,1,1.284-.027c.3.436.5.493.825.236a.747.747,0,0,1,1.118.021.836.836,0,0,1,.242.563c.061.362.347.444.782.223.65-.33,1.17.084,1.1.88-.048.573.011.636.6.636.767,0,1.111.525.776,1.187-.21.415-.066.686.391.734a.77.77,0,0,1,.734.728l0,.225L15.5,41.53l-6.123.013-.108.137a.385.385,0,0,0,.16.64c.118.041,2.482.058,8.249.058,7.989,0,8.085,0,8.177.1a.55.55,0,0,1-.02.646l-.113.113H1.064l-.113-.113a.55.55,0,0,1-.02-.646c.091-.1.172-.1,3.453-.1,2.2,0,3.408-.019,3.5-.054a.39.39,0,0,0,.174-.643l-.108-.137-1.395-.014-1.395-.014,0-.225a.77.77,0,0,1,.734-.728c.457-.048.6-.32.391-.734-.335-.661.009-1.187.776-1.187.589,0,.648-.063.6-.636-.066-.8.454-1.21,1.1-.88.435.221.721.139.782-.223a.836.836,0,0,1,.242-.563.747.747,0,0,1,1.118-.021c.324.258.525.2.825-.236a.743.743,0,0,1,.947-.261m-5.864,1.1c.167.033.17.049.065.3a1.138,1.138,0,0,0-.078.364c0,.17-.011.179-.3.26a1.671,1.671,0,0,0-.914.642c-.1.148-.192.224-.239.206s-.18-.055-.309-.088l-.235-.059.028-.272a1.631,1.631,0,0,1,.5-.979,1.479,1.479,0,0,1,1.483-.373m5.947.19c-.285.1-.63.458-.63.66,0,.4.412.542.758.268s.705-.107.705.31.7.426.81,0c.187-.748-.826-1.51-1.643-1.235m8.714.122a1.443,1.443,0,0,1,.28.37c.259.459.468.481.885.094,1.281-1.19,2.473.016,1.292,1.307-.384.42-.354.658.113.889.684.34.464.817-.468,1.014-.366.078-.472.175-.472.431v.2H22.8c-.312,0-.313,0-.313-.154a1.852,1.852,0,0,0-.285-.94l-.171-.254.672-.671c.737-.735.823-.913.568-1.169s-.426-.165-1.128.529l-.641.633-.035-.255a1.62,1.62,0,0,0-.456-.982c-.279-.29-.289-.33-.146-.644.191-.421.4-.555.619-.4m-12.591.586C8.2,38.18,8.014,39.3,8.641,39.3c.252,0,.353-.086.438-.373.126-.423.372-.527.665-.28.53.446,1.067-.134.579-.626a1.224,1.224,0,0,0-1.432-.194m7.891.627c-.668.349-.807,1.213-.195,1.213.205,0,.234-.02.495-.353.152-.194.367-.227.5-.078.341.375.409.431.525.431.393,0,.52-.423.252-.844a1.216,1.216,0,0,0-1.58-.368m-11.7,1.074c.313.15.322.25.036.418a1.65,1.65,0,0,0-.806,1.3l-.028.306H3l-.064-.267a1.552,1.552,0,0,1,2.144-1.753m6.584.031c-.67.135-1.163.883-.812,1.234.224.224.514.158.7-.159.2-.343.5-.332.751.029.126.182.168.206.353.206.779,0,.379-1.109-.47-1.3a.837.837,0,0,0-.523-.007" fill-rule="evenodd"/>
  </g>
</svg>
