<svg id="Pizza" xmlns="http://www.w3.org/2000/svg" width="23.326" height="23.37" viewBox="0 0 23.326 23.37">
  <path id="path0" d="M8.154.142A16.862,16.862,0,0,1,23.009,14.184a11.717,11.717,0,0,1,.14,3.4,2.569,2.569,0,0,1-3.24,1.774l-.319-.11-.844.189-1.608.361-.764.172V22.31l-.131.274a1.517,1.517,0,0,1-2.866-.821c-.029-.588-.033-.595-.344-.631a1.586,1.586,0,0,1-.454-.14l-.215-.112L6.721,22.154C.295,23.6.593,23.559.164,23.161c-.458-.425-.58.272,1.775-10.184C3.083,7.9,4.008,3.7,3.995,3.653s-.058-.206-.1-.344A2.6,2.6,0,0,1,5.678.14a11.378,11.378,0,0,1,2.475,0m-2.323.966A1.58,1.58,0,0,0,5.24,3.724c.384.384.608.454,1.6.5a12.554,12.554,0,0,1,6.292,1.938c.8.5.97.793.645,1.118-.223.223-.414.191-.949-.159a11.7,11.7,0,0,0-6.08-1.945A3,3,0,0,1,4.876,4.7c-.063-.055-.138.238-.7,2.731-.727,3.241-.669,2.862-.439,2.862A3.275,3.275,0,0,1,6.58,12.231a3.2,3.2,0,0,1-4.115,4.2c-.2-.079-.29-.1-.3-.062-.089.269-1.355,6.058-1.33,6.082s5.778-1.234,6.082-1.33c.034-.011.014-.1-.06-.25a3.214,3.214,0,0,1,.707-3.661,3.166,3.166,0,0,1,5.345,2.3c0,.572.053.673.354.675.621,0,1.059.54,1.06,1.3,0,.872.443,1.277.923.848l.149-.133.025-2.159a8.278,8.278,0,0,1,.127-2.448,2,2,0,0,1,2-1.415c.543-.016.558-.019.539-.114-.011-.054-.032-.252-.048-.44A12.314,12.314,0,0,0,16.2,10.509c-.384-.58-.419-.768-.19-1,.3-.3.574-.174.979.435a12.629,12.629,0,0,1,2.079,6.5c.061,1.222.306,1.692,1.023,1.96,1.179.441,2.127-.286,2.164-1.659.155-5.718-3.683-11.706-9.116-14.222C10.712,1.4,7.056.692,5.831,1.108M12.588,3.4c1.908.873,4.425,2.767,4.425,3.329,0,.614-.5.644-1.113.065a14.165,14.165,0,0,0-3.646-2.476c-.766-.366-.881-.511-.707-.892.14-.306.413-.313,1.04-.026M7.136,6.213A6.649,6.649,0,0,1,8.349,7.438c.2.426.1.671-.565,1.338-.9.91-1.129.907-2.05-.028C4.9,7.9,4.891,7.681,5.669,6.877c.706-.729,1.047-.883,1.467-.664M6.452,8.1l.318.32L7.089,8.1l.319-.319-.318-.32-.318-.32-.319.319-.319.319.318.32m8.724-.268a.481.481,0,0,1,.165.787.469.469,0,0,1-.792-.349c0-.207.159-.443.3-.443a.489.489,0,0,0,.119-.019.514.514,0,0,1,.209.024m-2.771.751a3.18,3.18,0,1,1-3.968,3.071,3.2,3.2,0,0,1,3.968-3.071M10.8,9.612a2.216,2.216,0,1,0,2.738.96,2.22,2.22,0,0,0-2.738-.96m.178.834a.542.542,0,0,1,.288.438.487.487,0,0,1-.825.322.474.474,0,0,1,.537-.76m8.931.489c.57.449,1.547,4.913,1.329,6.075a.481.481,0,0,1-.745.306c-.179-.109-.176-.1-.238-1.155a13.731,13.731,0,0,0-.849-4.09c-.295-.784-.3-.869-.093-1.078a.417.417,0,0,1,.6-.057m-6.945.035a.472.472,0,0,1-.552.76.461.461,0,0,1-.18-.185.471.471,0,0,1,.732-.575m-9.616.312c-.027.018-.25.932-.5,2.031-.51,2.272-.507,2.04-.025,2.226A2.207,2.207,0,0,0,5.2,11.927c-.5-.5-1.54-.862-1.854-.644m8.293,1.076a.468.468,0,0,1-.315.828.477.477,0,0,1-.314-.831.507.507,0,0,1,.629,0M5.019,12.8a.47.47,0,0,1-.52.762.465.465,0,0,1,.184-.9.384.384,0,0,1,.336.133M3.5,14.062a.516.516,0,0,1,.332.477.474.474,0,0,1-.935.086c-.058-.263.232-.629.466-.588l.137.026m4.785.944a.4.4,0,0,1,.155.324.487.487,0,0,1-.9.229.469.469,0,0,1,.748-.553m5.981.766a.542.542,0,0,1,.223.513.466.466,0,0,1-.806.219.472.472,0,0,1,.583-.732m2.818,1.445c-.463.21-.655.566-.693,1.28l-.026.493,1.113-.251c.612-.138,1.117-.254,1.121-.257s-.081-.185-.191-.4a2.639,2.639,0,0,1-.228-.615c-.047-.349-.023-.333-.489-.332a1.442,1.442,0,0,0-.607.084m-7.917.171a2.225,2.225,0,0,0-1.379,3.174,1.4,1.4,0,0,0,.176.267c.049.041,3.824-.771,3.95-.85a2.6,2.6,0,0,0-.047-1.109,2.253,2.253,0,0,0-2.7-1.482M4.642,18.3a.946.946,0,0,1,.274.235l.122.16v.9c0,1.323-.04,1.364-1.346,1.364s-1.457-.157-1.4-1.59c.026-.72.136-.958.507-1.1a6.623,6.623,0,0,1,1.848.028m4.593.079a.476.476,0,1,1-.8.346.483.483,0,0,1,.8-.346m1.711.331a.491.491,0,0,1,.087.862.457.457,0,0,1-.713-.351.487.487,0,0,1,.626-.511m-7.71.905v.433H4.1v-.867H3.236v.433" transform="translate(0.103 -0.075)" fill-rule="evenodd"/>
</svg>
