<svg xmlns="http://www.w3.org/2000/svg" width="120" height="126.994" viewBox="0 0 120 126.994">
  <path id="snacks" d="M55.217.231c-14.406,2.091-26.575,10.745-32.491,23.1l-.98,2.047h-2.3c-3.818,0-6.169,1.3-7.564,4.169-1.979,4.076,1.279,9.972,5.51,9.972H18.3l.144,3.784a41.163,41.163,0,0,0,1.82,11.219c.123.32-.137.38-1.626.38-3.914,0-5.462,1.615-5.47,5.706-.007,3.781.953,5.386,3.574,5.972.853.191,1.415.457,1.485.7.062.218,2.187,11.783,4.723,25.7,4.716,25.888,4.87,26.6,5.956,27.308.581.381.63.556.63,2.253,0,2.1.389,3.245,1.368,4.015l.684.538H60.225c31.446,0,29.656.087,30.466-1.481a7.028,7.028,0,0,0,.376-2.807c0-1.982.03-2.1.642-2.422a2.862,2.862,0,0,0,1-1.036c.279-.539,9.772-51.333,9.772-52.285,0-.125.505-.3,1.123-.4,2.725-.409,3.688-1.767,3.8-5.356.149-4.824-1.132-6.416-5.163-6.416-.984,0-1.744-.107-1.744-.245s.22-1.056.49-2.047a45.54,45.54,0,0,0,.348-20.091l-.148-.675,13.9-.07c17.681-.089,16.172.67,16.17-8.133,0-5.9-.158-6.868-1.265-7.8l-.756-.636H92.873L90.42,12.7A42.446,42.446,0,0,0,68.863.806,74.5,74.5,0,0,0,55.217.231m8.494,3.923A37.593,37.593,0,0,1,85.5,13.567l1.723,1.621-3.69.01-3.69.011-.992-1.127a5.817,5.817,0,0,0-7.15-1.524l-1.087.575-1-.572a6.383,6.383,0,0,0-5.371-.017l-1.107.561-.982-.556a6.433,6.433,0,0,0-5.354,0l-1.107.561-.982-.556c-2.45-1.388-7.8.273-7.8,2.421a12.072,12.072,0,0,1-3.564.239c-5.537,0-5.616.117-5.616,8.242,0,7.579.309,8.146,4.531,8.339l2.292.1.863,1.869c1.052,2.277,1.061,3.171.056,5.163a15.932,15.932,0,0,0-.054,13.741c1.074,2.127,1.037,2.238-.753,2.238-2.368,0-3.524,1.679-2.244,3.26l.474.586,30.229.124L103.349,59v3.722l-42.771.063c-32.167.047-42.857-.009-43.118-.225s-.326-.754-.274-1.924L17.258,59l9.388-.124,9.388-.124.474-.586a1.939,1.939,0,0,0-.135-2.651l-.609-.609H24.593l-.615-2.047a36.3,36.3,0,0,1-1.567-9.822l-.136-3.558,5.227.084c6.94.112,7.495.488,7.5,5.09,0,2.543.466,3.305,2.019,3.305,2.71,0,2.746-6.947.053-9.936-1.812-2.01-2.633-2.216-8.832-2.219a34.058,34.058,0,0,1-5.4-.219c0-.356,1.172-4.816,1.459-5.552l.266-.682h2.747c3.133,0,3.965-.416,3.965-1.985,0-1.4-.906-1.985-3.09-1.985-2.206,0-2.165.129-.761-2.334C34.021,11.474,49.31,2.727,60.8,3.955c.341.037,1.651.126,2.911.2m-50.638,1.4a1.55,1.55,0,0,0-.654,1.471c0,1.761.6,1.985,5.329,1.985,4.35,0,4.843.147,4.843,1.446,0,1.194-.775,1.531-3.536,1.535-4.289.007-5.633,1.262-5.64,5.268-.005,2.589.352,3.163,1.963,3.163,1.424,0,2-.825,2-2.855V16.018l2.68-.111c3.159-.13,4.4-.655,5.6-2.371,1.988-2.831.485-7.335-2.747-8.233-1.882-.523-9.1-.341-9.846.248M53.165,16.388c.768.875.754,1.492-.075,3.291l-.8,1.733H50.839a5.717,5.717,0,0,1-1.452-.094,8.111,8.111,0,0,1,.345-.93,10.875,10.875,0,0,0,.523-2.2c.214-1.64.676-2.233,1.737-2.233a1.743,1.743,0,0,1,1.173.434m7.617.219c.676.86.655,1.111-.267,3.11l-.781,1.695H58.282c-1.6,0-1.6.006-1.105-.943a8.28,8.28,0,0,0,.526-2.159c.285-2.37,1.866-3.245,3.079-1.7m7.443,0c.682.867.653,1.227-.253,3.164L67.2,21.413H64.266l.369-.883a10.093,10.093,0,0,0,.528-2.171c.3-2.42,1.842-3.3,3.061-1.751m7.549.155c.476.641.49.8.206,2.45-.394,2.3-.287,2.2-2.4,2.2H71.741l.346-.827a10.247,10.247,0,0,0,.512-2.171c.314-2.529,1.906-3.358,3.174-1.652m-29.86,2.286a10.4,10.4,0,0,1-.546,1.24l-.546,1.123H41.7V18.932H43.8a9.611,9.611,0,0,1,2.109.118m81.378,1.123v1.241h-3.857c-4.357,0-5.075.28-5.075,1.985s.717,1.985,5.075,1.985h3.857v2.481H41.7V25.382h70.484l.609-.609a1.858,1.858,0,0,0,0-2.752l-.609-.609H79.687l.13-.93a12.087,12.087,0,0,1,.225-1.24c.075-.245,5.027-.31,23.673-.31h23.578v1.24M20.034,29.91c-.074.307-.391,1.751-.7,3.208l-.57,2.65-.751-.14a3.088,3.088,0,0,1-1.789-5.249c1.087-1.175,4.073-1.542,3.815-.469m32.888,4c1.144,2.541,1.145,2.464-.031,5.083a15.76,15.76,0,0,0-.034,13.673c1.1,2.186,1.065,2.275-.928,2.188-1.659-.073-1.675-.081-1.754-.818a15.54,15.54,0,0,0-1.116-2.977c-1.036-2.23-1.038-2.237-1.038-5.21V42.874L49.1,40.64c1.387-2.872,1.527-5.073.469-7.384l-.652-1.423,1.537.006,1.537.006.93,2.066m7.446.01c1.13,2.545,1.129,2.488.071,4.832a15.944,15.944,0,0,0,0,14.216l.87,1.812-1.657.074c-1.729.078-2.062-.09-2.07-1.044a14.23,14.23,0,0,0-1.058-2.729,11.648,11.648,0,0,1,.037-10.319c1.4-3.026,1.535-5.193.465-7.505l-.661-1.427h3.08l.927,2.089m7.443,0c1.135,2.558,1.137,2.693.065,4.951a15.792,15.792,0,0,0-.017,14.06l.888,1.85-1.657.074c-1.725.077-2.062-.091-2.07-1.034a14.627,14.627,0,0,0-1.05-2.729c-1.034-2.24-1.046-2.3-1.054-5.119l-.009-2.853,1.111-2.357c1.417-3.008,1.548-5.418.416-7.629l-.667-1.3h3.116l.927,2.089m7.735-.911c.989,2.888.738,5.538-.851,8.989-1.26,2.736-1.357,4.712-.346,7.075a19.794,19.794,0,0,1,1.677,4.776l.16,1.054H72.731l-.169-.93a11.019,11.019,0,0,0-.858-2.308,11.438,11.438,0,0,1-.229-10.9c1.407-3.025,1.543-5.446.43-7.629l-.664-1.3h3.9l.4,1.179m21.7-.248a40.046,40.046,0,0,1-.538,20.282l-.582,1.737-7.945.065-7.945.065-.388-2.188a18.827,18.827,0,0,0-1.286-4.132c-1.087-2.353-1.116-3.194-.175-5.058,1.543-3.057,2.154-8,1.33-10.772l-.277-.93H97l.248.93m1.178,34.61c-.075.307-.317,1.563-.538,2.791s-.459,2.428-.528,2.667c-.11.379-.469.434-2.862.434-5.1,0-4.594-1.05-7.531,15.669-2.949,16.79-3,16.363,2.007,16.546,1.406.052,2.339.19,2.339.345,0,.26-1.277,7.371-1.761,9.8l-.259,1.3H31.4L26.86,92.059C24.363,78.38,22.325,67.1,22.332,67s17.162-.186,38.122-.186H98.565l-.136.558M27.524,69.546a2.207,2.207,0,0,0,.047,3.481,34.119,34.119,0,0,0,5.267.239c5.616,0,6.128-.166,6.128-1.985S38.46,69.3,32.793,69.3a34.388,34.388,0,0,0-5.268.242m29.832,2c-16.319,2.918-21.709,23.348-9.033,34.234,10.1,8.674,27.507,3.59,30.876-9.019.674-2.521-2.327-4.193-3.421-1.905-.162.339-.768,1.615-1.346,2.836-6.886,14.538-29.176,9.137-29.121-7.057.059-17.578,24.975-21.053,30.244-4.218.683,2.182,2.014,2.846,3.446,1.719.889-.7.848-1.786-.167-4.448A19.656,19.656,0,0,0,57.356,71.544m39.159,6c-.006.171-.986,5.613-2.179,12.1l-2.168,11.785-1.689.074-1.689.074.141-.694c.077-.382.984-5.551,2.014-11.487s1.935-11.1,2.01-11.475c.152-.759,3.586-1.118,3.56-.372m-44.428,8.6a1.629,1.629,0,0,0-.58,1.515c0,1.983.009,1.985,8.79,1.985,8.762,0,8.938-.039,8.938-1.985s-.176-1.985-8.938-1.985c-7.117,0-7.669.032-8.21.47m2.977,6.947a1.629,1.629,0,0,0-.58,1.515c0,1.861.364,1.985,5.813,1.985,5.429,0,5.96-.177,5.96-1.985s-.532-1.985-5.96-1.985c-4.2,0-4.71.046-5.233.47M87.1,122.142v1.24H33.508V120.9H87.1v1.24" transform="translate(-11.292 -0.111)" fill-rule="evenodd"/>
</svg>
