<svg xmlns="http://www.w3.org/2000/svg" width="22.503" height="23.815" viewBox="0 0 22.503 23.815">
  <g id="snacks" transform="translate(-11.292 -0.111)">
    <path id="path0" d="M19.529.134a7.942,7.942,0,0,0-6.093,4.333l-.184.384h-.431a1.39,1.39,0,0,0-1.419.782A1.355,1.355,0,0,0,12.436,7.5h.17l.027.71a7.719,7.719,0,0,0,.341,2.1c.023.06-.026.071-.3.071-.734,0-1.024.3-1.026,1.07,0,.709.179,1.01.67,1.12.16.036.265.086.279.132s.41,2.21.886,4.82c.884,4.855.913,4.988,1.117,5.121.109.071.118.1.118.423,0,.395.073.609.257.753l.128.1h5.37c5.9,0,5.561.016,5.713-.278a1.318,1.318,0,0,0,.071-.526c0-.372.006-.393.12-.454a.537.537,0,0,0,.187-.194c.052-.1,1.832-9.626,1.832-9.8,0-.023.095-.057.211-.074.511-.077.692-.331.712-1,.028-.9-.212-1.2-.968-1.2-.185,0-.327-.02-.327-.046s.041-.2.092-.384a8.54,8.54,0,0,0,.065-3.768l-.028-.126,2.607-.013c3.316-.017,3.033.126,3.032-1.525,0-1.107-.03-1.288-.237-1.463l-.142-.119H26.59l-.46-.47A7.96,7.96,0,0,0,22.088.241,13.971,13.971,0,0,0,19.529.134m1.593.736a7.05,7.05,0,0,1,4.086,1.765l.323.3-.692,0-.692,0-.186-.211a1.091,1.091,0,0,0-1.341-.286l-.2.108-.187-.107a1.2,1.2,0,0,0-1.007,0l-.208.105-.184-.1a1.206,1.206,0,0,0-1,0l-.208.105-.184-.1c-.459-.26-1.464.051-1.464.454a2.264,2.264,0,0,1-.668.045c-1.038,0-1.053.022-1.053,1.546,0,1.421.058,1.528.85,1.564l.43.02.162.35a.882.882,0,0,1,.011.968,2.988,2.988,0,0,0-.01,2.577c.2.4.194.42-.141.42-.444,0-.661.315-.421.611l.089.11,5.669.023,5.669.023v.7l-8.021.012c-6.032.009-8.037,0-8.086-.042s-.061-.141-.051-.361l.014-.307,1.761-.023,1.761-.023L16.02,11A.364.364,0,0,0,16,10.5l-.114-.114H13.786L13.67,10a6.808,6.808,0,0,1-.294-1.842l-.026-.667.98.016c1.3.021,1.405.092,1.406.955,0,.477.087.62.379.62.508,0,.515-1.3.01-1.863-.34-.377-.494-.416-1.656-.416a6.387,6.387,0,0,1-1.012-.041c0-.067.22-.9.274-1.041l.05-.128H14.3c.588,0,.743-.078.743-.372,0-.263-.17-.372-.579-.372s-.406.024-.143-.438C15.554,2.242,18.421.6,20.576.832c.064.007.31.024.546.037m-9.5.262a.291.291,0,0,0-.123.276c0,.33.113.372,1,.372.816,0,.908.028.908.271,0,.224-.145.287-.663.288-.8,0-1.056.237-1.058.988,0,.485.066.593.368.593.267,0,.376-.155.376-.535v-.29l.5-.021c.592-.024.825-.123,1.051-.445a1.042,1.042,0,0,0-.515-1.544,5.324,5.324,0,0,0-1.846.047m7.518,2.032c.144.164.141.28-.014.617l-.15.325h-.272a1.072,1.072,0,0,1-.272-.018,1.521,1.521,0,0,1,.065-.174,2.039,2.039,0,0,0,.1-.413c.04-.307.127-.419.326-.419a.327.327,0,0,1,.22.081m1.428.041c.127.161.123.208-.05.583l-.147.318H20.1c-.3,0-.3,0-.207-.177a1.553,1.553,0,0,0,.1-.4c.054-.445.35-.609.577-.319m1.4,0c.128.163.122.23-.048.593l-.144.308h-.551L21.3,3.94a1.893,1.893,0,0,0,.1-.407c.056-.454.345-.619.574-.328m1.416.029c.089.12.092.15.039.459-.074.431-.054.413-.451.413h-.344l.065-.155a1.922,1.922,0,0,0,.1-.407c.059-.474.357-.63.6-.31m-5.6.429a1.95,1.95,0,0,1-.1.233l-.1.211h-.586V3.64h.4a1.8,1.8,0,0,1,.4.022m15.261.211v.233h-.723c-.817,0-.952.053-.952.372s.135.372.952.372h.723v.465H16.993V4.85H30.211l.114-.114a.349.349,0,0,0,0-.516l-.114-.114H24.118l.024-.174a2.268,2.268,0,0,1,.042-.233c.014-.046.943-.058,4.439-.058h4.421v.233M12.931,5.7c-.014.058-.073.328-.132.6l-.107.5-.141-.026a.579.579,0,0,1-.335-.984c.2-.22.764-.289.715-.088m6.167.75c.215.476.215.462-.006.953a2.955,2.955,0,0,0-.006,2.564c.207.41.2.427-.174.41-.311-.014-.314-.015-.329-.153a2.914,2.914,0,0,0-.209-.558,1.552,1.552,0,0,1-.195-.977V8.13l.2-.419a1.5,1.5,0,0,0,.088-1.385l-.122-.267h.576l.174.388m1.4,0c.212.477.212.467.013.906a2.99,2.99,0,0,0,0,2.666l.163.34-.311.014c-.324.015-.387-.017-.388-.2a2.669,2.669,0,0,0-.2-.512,2.184,2.184,0,0,1,.007-1.935,1.534,1.534,0,0,0,.087-1.407l-.124-.268h.578l.174.392m1.4,0c.213.48.213.505.012.928a2.961,2.961,0,0,0,0,2.637l.166.347-.311.014c-.323.015-.387-.017-.388-.194a2.743,2.743,0,0,0-.2-.512,1.558,1.558,0,0,1-.2-.96l0-.535.208-.442A1.536,1.536,0,0,0,21.258,6.3l-.125-.244h.584l.174.392m1.451-.171a2.107,2.107,0,0,1-.16,1.686,1.47,1.47,0,0,0-.065,1.327,3.712,3.712,0,0,1,.315.9l.03.2h-.648l-.032-.174a2.066,2.066,0,0,0-.161-.433,2.145,2.145,0,0,1-.043-2.045A1.553,1.553,0,0,0,22.658,6.3l-.125-.244h.732l.076.221m4.07-.047a7.51,7.51,0,0,1-.1,3.8l-.109.326-1.49.012-1.49.012-.073-.41a3.531,3.531,0,0,0-.241-.775.863.863,0,0,1-.033-.949,3.259,3.259,0,0,0,.249-2.02l-.052-.174h3.292l.047.174m.221,6.49c-.014.058-.059.293-.1.523s-.086.455-.1.5c-.021.071-.088.081-.537.081-.956,0-.861-.2-1.412,2.938s-.563,3.068.376,3.1c.264.01.439.036.439.065,0,.049-.24,1.382-.33,1.838l-.049.244H15.062l-.851-4.664c-.468-2.565-.85-4.68-.849-4.7s3.218-.035,7.149-.035h7.147l-.025.1m-13.3.407a.414.414,0,0,0,.009.653,6.4,6.4,0,0,0,.988.045c1.053,0,1.149-.031,1.149-.372s-.1-.372-1.158-.371a6.448,6.448,0,0,0-.988.045m5.594.375a3.652,3.652,0,1,0,4.1,4.729c.126-.473-.436-.786-.642-.357l-.252.532a2.891,2.891,0,1,1,.211-2.114c.128.409.378.534.646.322.167-.131.159-.335-.031-.834a3.686,3.686,0,0,0-4.028-2.277m7.343,1.125c0,.032-.185,1.053-.409,2.268l-.407,2.21-.317.014-.317.014.026-.13c.015-.072.184-1.041.378-2.154s.363-2.081.377-2.152c.029-.142.673-.21.668-.07m-8.332,1.612a.305.305,0,0,0-.109.284c0,.372,0,.372,1.648.372s1.676-.007,1.676-.372-.033-.372-1.676-.372c-1.335,0-1.438.006-1.54.088m.558,1.3a.305.305,0,0,0-.109.284c0,.349.068.372,1.09.372s1.118-.033,1.118-.372-.1-.372-1.118-.372c-.787,0-.883.009-.981.088M25.507,23v.233H15.458v-.465h10.05V23" transform="translate(0 0)" fill-rule="evenodd"/>
  </g>
</svg>
