<svg xmlns="http://www.w3.org/2000/svg" width="120" height="200.179" viewBox="0 0 120 200.179">
  <path id="softdrinks" d="M138.333,13.313c-.783.782-.834,1.389-.834,9.937v9.1l-4.062.251c-21.33,1.318-39.271,20.574-39.271,42.149v4.393h-2.5c-4.143,0-4.166.054-4.166,9.921,0,9.938-.064,9.78,4.013,10.079l2.831.209,6.142,52.292c7.2,61.3,6.439,57.4,11.729,59.963,2.824,1.367,67.744,1.367,70.568,0,5.29-2.561,4.528,1.337,11.729-59.963l6.142-52.292,2.831-.209c4.077-.3,4.013-.141,4.013-10.079,0-9.844-.032-9.921-4.108-9.921H200.95l-.227-5.729c-.85-21.441-18.195-39.518-39.16-40.813l-4.062-.251v-9.1c0-11.815.97-10.77-10-10.77-7.778,0-8.389.055-9.166.834m12.5,12.5v6.667h-6.667V19.146h6.667v6.667M137.5,59.146v20H100.783l.271-4.062c1.291-19.348,14.657-33.682,33.112-35.511,1.719-.17,3.172-.336,3.229-.368s.1,8.942.1,19.942m13.333,0v20h-6.667v-40h6.667v20m15.834-18.552c15.551,4.039,26.14,17.427,27.279,34.49l.271,4.062H157.5V39.324l3.229.284a43.88,43.88,0,0,1,5.938.987m34.166,48.552v3.333H94.167V85.813H200.833v3.333M110.842,115.5c.009,14.921.076,16.5.769,18.021.813,1.786,3.569,4.528,5.01,4.986.86.273.88.482.88,9.626,0,12.285-1.539,11.013,13.333,11.013,15,0,13.333,1.665,13.333-13.333,0-14.555.7-13.334-7.6-13.333h-5.938l.208-8.647c.222-9.236.451-10.305,2.3-10.77,2.5-.628,4.348,1.187,4.372,4.3.061,7.708,11.751,11.4,17.366,5.481,2.456-2.589,2.625-3.494,2.625-14.1v-9.6h17.917c17.721,0,17.917.009,17.917.845,0,2.322-12.124,103.451-12.482,104.122-.878,1.642-2.032,1.7-33.351,1.7s-32.473-.059-33.351-1.7c-.358-.67-12.482-101.8-12.482-104.122,0-.8.256-.845,4.583-.845h4.583l.009,16.354m39.991-8.216c0,9.052-.348,10.786-2.264,11.267-2.514.631-4.4-1.17-4.4-4.2,0-7.534-11.218-11.431-17.03-5.917-2.665,2.529-2.951,3.734-2.961,12.492-.012,10.194-.694,11.887-4.412,10.955-2.113-.531-2.264-1.725-2.264-17.934v-14.8h33.333v8.138M175,106.646a3.442,3.442,0,0,0,2.5,5.833q3.334,0,3.333-3.333a3.547,3.547,0,0,0-5.833-2.5m-16.758,19.908c-7.374,7.375-7.409,7.417-7.409,9.258,0,2.9,13.771,16.667,16.667,16.667s16.667-13.771,16.667-16.667S170.4,119.146,167.5,119.146c-1.841,0-1.883.034-9.258,7.409m13.428,5.3,3.945,3.961-4.057,4.057-4.057,4.057-4.057-4.057-4.057-4.057,3.945-3.961a54.925,54.925,0,0,1,4.17-3.961,54.958,54.958,0,0,1,4.17,3.961M137.5,145.813v6.667H124.167V139.146H137.5v6.667m.834,20.834c-.794.794-.834,1.389-.834,12.5s.039,11.706.834,12.5,1.389.833,12.5.833,11.706-.039,12.5-.833.833-1.389.833-12.5-.039-11.706-.833-12.5-1.389-.834-12.5-.834-11.706.039-12.5.834m33.333,0a4.166,4.166,0,1,0,2.5-.834,3.394,3.394,0,0,0-2.5.834m-14.167,12.5v6.667H144.167V172.479H157.5v6.667m-35.833,7.5a3.442,3.442,0,0,0,2.5,5.833q3.334,0,3.333-3.333a3.547,3.547,0,0,0-5.833-2.5" transform="translate(-87.5 -12.456)" fill-rule="evenodd"/>
</svg>
