<svg xmlns="http://www.w3.org/2000/svg" width="13.493" height="22.509" viewBox="0 0 13.493 22.509">
  <g id="svgg" transform="translate(-87.5 -12.456)">
    <path id="path0" d="M93.216,12.552c-.088.088-.094.156-.094,1.117v1.024l-.457.028a4.849,4.849,0,0,0-4.416,4.739v.494h-.281c-.466,0-.468.006-.468,1.115s-.007,1.1.451,1.133l.318.023.691,5.88c.81,6.893.724,6.454,1.319,6.742a68.331,68.331,0,0,0,7.935,0c.595-.288.509.15,1.319-6.742l.691-5.88.318-.023c.458-.034.451-.016.451-1.133s0-1.115-.462-1.115h-.275l-.026-.644a4.813,4.813,0,0,0-4.4-4.589l-.457-.028V13.669c0-1.329.109-1.211-1.124-1.211-.875,0-.943.006-1.031.094m1.406,1.406v.75h-.75v-1.5h.75v.75m-1.5,3.748v2.249H88.993l.03-.457A4.122,4.122,0,0,1,92.747,15.5c.193-.019.357-.038.363-.041s.012,1.005.012,2.242m1.5,0v2.249h-.75v-4.5h.75v2.249M96.4,15.62A4.146,4.146,0,0,1,99.469,19.5l.03.457H95.371V15.477l.363.032a4.934,4.934,0,0,1,.668.111m3.842,5.459v.375H88.25V20.7h11.994v.375M90.125,24.042a6.77,6.77,0,0,0,.086,2.026,1.378,1.378,0,0,0,.563.561c.1.031.1.054.1,1.082,0,1.381-.173,1.238,1.5,1.238s1.5.187,1.5-1.5c0-1.637.078-1.5-.855-1.5h-.668l.023-.972c.025-1.039.051-1.159.259-1.211.281-.071.489.133.492.483a1.156,1.156,0,0,0,1.953.616c.276-.291.3-.393.3-1.585V22.2h2.015c1.993,0,2.015,0,2.015.095,0,.261-1.363,11.632-1.4,11.708-.1.185-.228.191-3.75.191s-3.651-.007-3.75-.191c-.04-.075-1.4-11.447-1.4-11.708,0-.09.029-.095.515-.095h.515v1.839m4.5-.924c0,1.018-.039,1.213-.255,1.267-.283.071-.5-.132-.5-.472a1.155,1.155,0,0,0-1.915-.665c-.3.284-.332.42-.333,1.4,0,1.146-.078,1.337-.5,1.232-.238-.06-.255-.194-.255-2.017V22.2h3.748v.915m2.717-.072a.387.387,0,0,0,.281.656.331.331,0,0,0,.375-.375.4.4,0,0,0-.656-.281m-1.884,2.239c-.829.829-.833.834-.833,1.041A5.171,5.171,0,0,0,96.5,28.2a5.171,5.171,0,0,0,1.874-1.874A5.171,5.171,0,0,0,96.5,24.452c-.207,0-.212,0-1.041.833m1.51.6.444.445-.456.456-.456.456-.456-.456-.456-.456.444-.445a6.176,6.176,0,0,1,.469-.445,6.178,6.178,0,0,1,.469.445m-3.842,1.569v.75h-1.5V26.7h1.5v.75m.094,2.343c-.089.089-.094.156-.094,1.406s0,1.316.094,1.406.156.094,1.406.094,1.316,0,1.406-.094.094-.156.094-1.406,0-1.316-.094-1.406-.156-.094-1.406-.094-1.316,0-1.406.094m3.748,0a.468.468,0,1,0,.281-.094.382.382,0,0,0-.281.094M95.371,31.2v.75h-1.5v-1.5h1.5v.75m-4.029.843a.387.387,0,0,0,.281.656A.331.331,0,0,0,92,32.323a.4.4,0,0,0-.656-.281" fill-rule="evenodd"/>
  </g>
</svg>
