<svg xmlns="http://www.w3.org/2000/svg" width="26.335" height="24.269" viewBox="0 0 26.335 24.269">
  <g id="svgg" transform="translate(-0.156 -15.616)">
    <path id="path0" d="M12.614,15.668A5.1,5.1,0,0,0,8.19,20.459a5.644,5.644,0,0,0,.118,1.508c.014.037-.072.086-.222.126a5.217,5.217,0,0,0-3.433,5.952c.027.106,0,.129-.245.209A5.162,5.162,0,0,0,.984,33.927l.04.27H.84c-.609,0-.85.563-.565,1.319a6.889,6.889,0,0,0,4.262,4.055c1.012.33.542.313,8.785.313s7.773.017,8.785-.313a6.889,6.889,0,0,0,4.262-4.055c.294-.78.045-1.319-.608-1.319h-.228l.047-.244a5.176,5.176,0,0,0-3.255-5.627l-.449-.16.057-.188c.346-1.152-.307-3.765-.942-3.765-.438,0-.506.3-.213.932a4.293,4.293,0,0,1,.367,2.459l-.065.418h-.588a4.9,4.9,0,0,0-3.241,1.166c-.352.3-.4.3-.611.068a5.119,5.119,0,0,0-1.621-.955c-.326-.115-.334-.122-.323-.288a5.332,5.332,0,0,0-.654-3.674l-.211-.348.143-.151a4.318,4.318,0,0,1,5.315-.425c.5.334.829.292.908-.117.06-.31-.769-.9-1.646-1.174l-.3-.094.032-.182a5.13,5.13,0,0,0-5.671-6.178m1.807.952A4.318,4.318,0,0,1,17.5,21.536l-.066.335-.627.006a4.887,4.887,0,0,0-3.2,1.181l-.322.273-.27-.23a5.188,5.188,0,0,0-3.5-1.247l-.365.017-.062-.206a6.329,6.329,0,0,1,.034-1.982,4.314,4.314,0,0,1,5.3-3.063m-1.382.614a2.541,2.541,0,0,0-.932,2.152,1.238,1.238,0,0,0,2.229.487c.656-.974-.367-3.055-1.3-2.639m.468,1.132c.3.649.281,1.07-.045,1.184-.367.129-.609-.16-.513-.615.073-.347.293-.848.373-.848.031,0,.115.126.185.279m-2.86,4.424a4.338,4.338,0,0,1,3.245,4.854l-.061.364-.756.026a4.849,4.849,0,0,0-3.166,1.225l-.235.207-.427-.34a4.78,4.78,0,0,0-2.986-1.091c-.869-.03-.784.033-.86-.644a4.324,4.324,0,0,1,5.247-4.6m-1.343.7a2.523,2.523,0,0,0-.87,1.926,1.236,1.236,0,0,0,1.925,1c1.139-.781.138-3.561-1.055-2.93m7.287-.021a2.473,2.473,0,0,0-.831,2.4,1.23,1.23,0,0,0,2.363-.5c-.019-1.236-.843-2.259-1.532-1.9M9.862,24.613c.287.675.251,1.038-.114,1.168-.493.176-.627-.457-.26-1.231.158-.334.209-.325.374.064m7.323.2c.208.624.1,1-.291,1-.445,0-.489-.633-.1-1.392l.09-.173.092.114a1.979,1.979,0,0,1,.206.456M7.028,28.95a4.345,4.345,0,0,1,1.891.991l.2.175-.161.252a5.5,5.5,0,0,0-.72,3.611l.039.219-3.2-.013-3.2-.013-.069-.36A4.308,4.308,0,0,1,7.028,28.95m7.038-.048a4.342,4.342,0,0,1,3.432,5l-.065.3-4.152-.013-4.153-.013-.059-.283a4.306,4.306,0,0,1,5-4.986m7.466.048a4.343,4.343,0,0,1,3.219,4.933c-.03.153-.054.286-.054.3S23.26,34.2,21.5,34.2H18.308l.042-.373a5.416,5.416,0,0,0-.762-3.5l-.116-.192L17.6,30a4.324,4.324,0,0,1,3.934-1.048m-15.97.767a2.747,2.747,0,0,0-.729,2.1,1.222,1.222,0,0,0,2.4-.442c-.094-1.329-.954-2.183-1.674-1.661m7.315-.053a2.571,2.571,0,0,0-.772,2.221,1.225,1.225,0,0,0,2.4-.313c0-1.31-.891-2.357-1.627-1.908m7.258,0a2.426,2.426,0,0,0-.7,2.455,1.236,1.236,0,0,0,2.311-.774c-.129-1.263-.927-2.1-1.609-1.681M6.323,31c.184.588.084.934-.27.934-.478,0-.546-.541-.164-1.295l.134-.264.1.149a2.392,2.392,0,0,1,.2.476m7.16-.227c.3.651.232,1.161-.165,1.161-.486,0-.564-.424-.218-1.194.168-.375.194-.373.383.033m7.193-.138c.373.732.317,1.3-.128,1.3-.474,0-.543-.5-.174-1.261.136-.282.176-.287.3-.039m4.861,4.71c-.072.177-.175.409-.229.515l-.1.193H9.391l-.119.112a.426.426,0,0,0-.021.564l.1.122,7.635.026,7.635.026-.439.439a5.906,5.906,0,0,1-3.473,1.691c-.646.079-14.126.079-14.772,0a5.906,5.906,0,0,1-3.473-1.691L2.024,36.9l2.934-.026c1.614-.014,2.975-.046,3.025-.07a.405.405,0,0,0,.085-.618l-.107-.136H1.435l-.1-.193c-.054-.106-.157-.338-.229-.515l-.131-.322H25.668l-.131.322" transform="translate(0 0)" fill-rule="evenodd"/>
  </g>
</svg>
