<svg xmlns="http://www.w3.org/2000/svg" width="13.671" height="23.332" viewBox="0 0 13.671 23.332">
  <g id="Tobacco" transform="translate(-82.813)">
    <path id="path0" d="M83.845.12l-.12.12V6.015h-.336c-.3,0-.348.012-.456.12l-.12.12V23.092l.12.12.12.12h13.19l.12-.12.12-.12V6.255l-.12-.12c-.108-.108-.154-.12-.456-.12h-.336V3.248l-.12-.12-.12-.12H90.527l-.12.12c-.112.112-.12.148-.12.524v.4H89.011v-.4c0-.376-.008-.412-.12-.524l-.12-.12H86.823V.24L86.7.12,86.583,0H83.965l-.12.12m2.067,3.343V6.015H84.636V.911h1.276V3.463m2.187,1.5V6.015H86.823v-2.1H88.1V4.967m4.375,0V6.015H91.2v-2.1h1.276V4.967m2.187,0V6.015H93.385v-2.1h1.276V4.967m-4.375.547v.5H89.011v-1h1.276v.5M84.72,7.144a2.308,2.308,0,0,0,1.5,1.515,55.909,55.909,0,0,0,6.855,0,2.308,2.308,0,0,0,1.5-1.515l.056-.217h.94v7.347l-.1-.065c-.939-.6-5.7-3.272-5.822-3.272s-4.882,2.674-5.822,3.272l-.1.065V6.927h.94l.056.217m8.893-.193c0,.316-.565.759-1.076.842-.351.058-5.426.058-5.777,0-.511-.084-1.076-.526-1.076-.842,0-.014,1.784-.025,3.965-.025s3.965.011,3.965.025m-.965,6.743,2.923,1.686V22.42H83.724V15.38l2.927-1.694c1.61-.932,2.96-1.691,3-1.686s1.388.767,3,1.694m-4.716,6.891a.453.453,0,0,0-.334.455.469.469,0,0,0,.928.1.482.482,0,0,0-.594-.556m1.322,0a.482.482,0,0,0-.168.831c.113.089.177.094,1.233.094h1.114l.133-.133a.47.47,0,0,0-.238-.8c-.154-.031-1.914-.028-2.075,0" fill-rule="evenodd"/>
  </g>
</svg>
