<svg xmlns="http://www.w3.org/2000/svg" width="29.001" height="18.777" viewBox="0 0 29.001 18.777">
  <g id="wraps" transform="translate(0 -70.313)">
    <path id="path0" d="M8.641,70.376a3.633,3.633,0,0,0-2.155,5.985l.258.287-1.771.019L3.2,76.686l-.484.173a3.619,3.619,0,0,0-1.45,5.9L1.5,83H1.017C.113,83,0,83.168,0,84.5,0,86.122.559,86.885,1.838,87l.371.035V87.4a1.558,1.558,0,0,0,.8,1.518l.307.17H25.687l.307-.17a1.558,1.558,0,0,0,.8-1.518v-.363L27.174,87C28.437,86.885,29,86.112,29,84.5c0-1.239-.139-1.5-.812-1.5-.151,0-.264-.019-.253-.043l.229-.462a3.628,3.628,0,0,0,.372-1.946c-.032-1.028-.178-1.212-.92-1.165l-.365.023-.034-.183a3.739,3.739,0,0,0-2.294-2.367l-.484-.173-1.771-.019L20.9,76.648l.288-.321a3.646,3.646,0,0,0-.759-5.416,4.6,4.6,0,0,0-2.82-.6H16.7l-.172.172c-.144.144-.167.2-.137.354.067.348.168.38,1.188.38,1.513,0,2.134.184,2.767.817a2.7,2.7,0,0,1-1.3,4.556l-.241.052.3-.322c1.041-1.125,1.23-3.222.25-2.775a.556.556,0,0,0-.264.549,2.816,2.816,0,0,1-2.035,2.47c-.471.138-.489.116-.175-.235.8-.894,1.18-2.539.643-2.783-.4-.182-.575-.011-.676.666a2.777,2.777,0,0,1-2.561,2.444h-.191l.292-.326a3.66,3.66,0,0,0-.039-4.815l-.252-.3h.48c.717,0,1.006-.345.616-.734l-.172-.172L12,70.32c-1.661,0-3.172.029-3.358.056m3.424.9a2.71,2.71,0,0,1,.865,5.054,8.8,8.8,0,0,1-5.024,0,2.725,2.725,0,0,1,.816-5.047,26.669,26.669,0,0,1,3.342-.005M8.723,72.46a1.573,1.573,0,0,0-.173,2.916,12.758,12.758,0,0,0,3.747,0,1.583,1.583,0,0,0,.084-2.815,18.088,18.088,0,0,0-3.658-.1M12.1,73.508a.577.577,0,0,1,.07.8c-.223.283-.384.312-1.746.312s-1.523-.029-1.746-.312a.577.577,0,0,1,.07-.8l.193-.193h2.968l.193.193M6.993,77.65a2.7,2.7,0,0,1,.526,5.06,9.045,9.045,0,0,1-4.8-.007,2.712,2.712,0,0,1,.516-5.051,19.445,19.445,0,0,1,3.758,0m4.781.241a3.619,3.619,0,0,0-.011,4.765l.312.345H8.77l.312-.345a3.619,3.619,0,0,0-.011-4.765l-.3-.328h3.31l-.3.328m5.812-.241a2.708,2.708,0,0,1,.54,5.054,9,9,0,0,1-4.815,0,2.712,2.712,0,0,1,.516-5.051,19.445,19.445,0,0,1,3.758,0m6.788,0A2.762,2.762,0,0,1,26.168,79.1c.287.573.291.547-.12.773a4.406,4.406,0,0,0-.739.566l-.393.377-.436-.429c-.816-.8-2.144-1.266-2.53-.88-.478.478-.472,2.044.013,3.044L22.18,83H19.362l.312-.345a3.619,3.619,0,0,0-.011-4.765l-.3-.328H21.7a15.7,15.7,0,0,1,2.669.084M3.587,78.753a1.555,1.555,0,0,0-.243,2.974,20.736,20.736,0,0,0,3.523.025,1.572,1.572,0,0,0,.145-2.891,14.51,14.51,0,0,0-3.425-.108m10.592,0a1.565,1.565,0,0,0-.2,3,26.153,26.153,0,0,0,3.481,0,1.567,1.567,0,0,0,.1-2.908,15.565,15.565,0,0,0-3.383-.091m-7.457,1a.644.644,0,0,1-.043,1.074,12.229,12.229,0,0,1-3.115-.014.631.631,0,0,1,.154-1.15,12.119,12.119,0,0,1,3,.09m10.592,0a.638.638,0,0,1,.217.778c-.172.362-.248.378-1.813.378s-1.642-.016-1.811-.374a.625.625,0,0,1,.4-.873,12.119,12.119,0,0,1,3,.09m10.326,1a2.843,2.843,0,0,1-.715,1.965L26.668,83H24.977l.035-.156a2.934,2.934,0,0,1,.867-1.662,3.045,3.045,0,0,1,1.309-.794c.47-.152.453-.166.452.36m-4.488-.206a3.32,3.32,0,0,1,1.06.925l.16.231-.118.41c-.065.226-.134.518-.155.651L24.063,83h-.324c-.7,0-1.361-1.271-1.225-2.36.045-.36.08-.366.638-.1m5,3.837c0,.943-.171,1.348-.681,1.608l-.249.127H15.4l-.139.139a.427.427,0,0,0,0,.628l.139.139H25.886v.343c0,.423-.114.659-.37.766-.289.121-21.741.121-22.03,0-.256-.107-.37-.343-.37-.766v-.343H8.432c5.293,0,5.317,0,5.466-.117a.456.456,0,0,0,.026-.658l-.123-.131H1.78l-.249-.127c-.509-.26-.681-.665-.681-1.608v-.474h27.3v.474" fill-rule="evenodd"/>
  </g>
</svg>
