<?xml version="1.0" encoding="utf-8"?>
<!-- Generator: Adobe Illustrator 24.0.0, SVG Export Plug-In . SVG Version: 6.00 Build 0)  -->
<svg version="1.1" id="Layer_1" xmlns="http://www.w3.org/2000/svg" xmlns:xlink="http://www.w3.org/1999/xlink" x="0px" y="0px"
	 viewBox="0 0 750 750" style="enable-background:new 0 0 750 750;" xml:space="preserve">
<style type="text/css">
	.st0{fill:#55A4DB;}
	.st1{fill:#FFFFFF;}
	.st2{fill:#2E368F;}
	.st3{fill:#2AAAE2;}
	.st4{enable-background:new    ;}
</style>
<g>
	<g>
		<circle class="st0" cx="368.78" cy="303.69" r="233"/>
		<circle class="st1" cx="368.78" cy="303.69" r="189"/>
		<circle class="st0" cx="371.6" cy="298.59" r="146"/>
		<circle class="st1" cx="371.6" cy="298.59" r="131"/>
		<path class="st2" d="M265.78,273.77c0,0,17.66,33.81,16.15,43.95c0,0,24.79,0,34.93-10.52c0,0,11.64,30.8,7.89,42.07
			c0,0,86.02,26.42,115.02,9.42c0,0,1.8-58.25,5.56-81.92l2.63,9.39c0,0,21.41-3.38,28.92,3.01c0,0,1.5-44.33,7.89-49.96
			c0,0-28.17-19.16-83.77-11.27c0,0-3.38,1.13-4.51,6.01c-1.13,4.88-0.2,18.13-22.91,22.16c-23.29,4.13-28.92-15.4-28.92-15.4
			s-1.13-2.63-3.01-2.63s-17.66-1.13-28.92,8.26S283.06,271.52,265.78,273.77z"/>
		<circle class="st3" cx="336.78" cy="321.69" r="6"/>
		<circle class="st3" cx="324.78" cy="307.69" r="6"/>
		<circle class="st3" cx="340.78" cy="304.69" r="6"/>
		<path class="st3" d="M254.78,349.69c0,0,59-31,121,0s113-14,113-14S399.78,504.69,254.78,349.69z"/>
		<circle class="st1" cx="296.78" cy="354.69" r="12"/>
		<circle class="st1" cx="313.78" cy="344.69" r="6"/>
		<circle class="st1" cx="318.78" cy="359.69" r="6"/>
		<circle class="st1" cx="330.78" cy="346.69" r="6"/>
	</g>
	<g>
		<g class="st4">
			<path class="st2" d="M175.22,635.55c-7.51,0-13.83-1.68-18.96-5.04c-5.13-3.36-8.74-7.93-10.84-13.71l12.79-7.48
				c2.96,7.73,8.78,11.59,17.45,11.59c4.19,0,7.26-0.76,9.21-2.28c1.95-1.52,2.93-3.43,2.93-5.74c0-2.67-1.19-4.75-3.58-6.23
				c-2.38-1.48-6.65-3.09-12.79-4.82c-3.4-1.01-6.27-2.02-8.61-3.03c-2.35-1.01-4.7-2.37-7.04-4.06c-2.35-1.7-4.14-3.85-5.36-6.45
				c-1.23-2.6-1.84-5.63-1.84-9.1c0-6.86,2.44-12.33,7.31-16.42c4.88-4.08,10.74-6.12,17.61-6.12c6.14,0,11.54,1.5,16.2,4.5
				c4.66,3,8.29,7.17,10.89,12.52l-12.57,7.26c-3.03-6.5-7.87-9.75-14.52-9.75c-3.11,0-5.55,0.7-7.31,2.11
				c-1.77,1.41-2.65,3.23-2.65,5.47c0,2.38,0.99,4.32,2.98,5.8c1.99,1.48,5.8,3.09,11.43,4.82c2.31,0.72,4.06,1.28,5.26,1.68
				c1.19,0.4,2.82,1.01,4.88,1.84c2.06,0.83,3.65,1.61,4.77,2.33c1.12,0.72,2.4,1.7,3.85,2.93c1.44,1.23,2.55,2.49,3.3,3.79
				c0.76,1.3,1.41,2.87,1.95,4.71c0.54,1.84,0.81,3.85,0.81,6.01c0,7.01-2.55,12.57-7.64,16.69
				C190.01,633.49,183.38,635.55,175.22,635.55z"/>
			<path class="st2" d="M245.91,634.04l-20.08-75.85h15.64l14.59,56.24l15.82-56.24h12.95l15.89,56.1l14.4-56.1h14.4l-19.93,75.85
				h-17.01l-14.37-50.33l-14.27,50.33H245.91z"/>
			<path class="st2" d="M375.36,619.73h31.97v14.3h-46.92v-75.85h46.38v14.3h-31.42v16.15h28.71v14.09h-28.71V619.73z"/>
			<path class="st2" d="M453.71,619.73h31.97v14.3h-46.92v-75.85h46.38v14.3h-31.42v16.15h28.72v14.09h-28.72V619.73z"/>
			<path class="st2" d="M547.22,558.18c10.4,0,19.09,3.65,26.06,10.94c6.97,7.3,10.46,16.29,10.46,26.98
				c0,10.69-3.49,19.69-10.46,26.98c-6.97,7.3-15.66,10.94-26.06,10.94H517.1v-75.85H547.22z M547.22,619.73
				c6.57,0,11.92-2.18,16.04-6.56c4.12-4.37,6.18-10.06,6.18-17.07c0-7.01-2.06-12.7-6.18-17.07c-4.12-4.37-9.46-6.56-16.04-6.56
				h-15.17v47.25H547.22z"/>
		</g>
	</g>
	<g>
		<g class="st4">
			<path class="st0" d="M315.48,666.61h8.46v4.18h-12.83v-22.17h4.37V666.61z"/>
			<path class="st0" d="M337.94,654.95h4.09v15.84h-4.09v-1.87c-1.23,1.54-2.95,2.31-5.16,2.31c-2.11,0-3.92-0.81-5.43-2.42
				c-1.51-1.62-2.27-3.6-2.27-5.94c0-2.34,0.75-4.32,2.27-5.94c1.51-1.62,3.32-2.42,5.43-2.42c2.22,0,3.94,0.77,5.16,2.31V654.95z
				 M330.4,666.08c0.82,0.83,1.87,1.25,3.14,1.25c1.27,0,2.32-0.42,3.15-1.25c0.83-0.83,1.25-1.91,1.25-3.22
				c0-1.31-0.42-2.38-1.25-3.21c-0.83-0.83-1.88-1.25-3.15-1.25c-1.27,0-2.31,0.42-3.14,1.25c-0.82,0.83-1.24,1.91-1.24,3.21
				C329.17,664.18,329.58,665.25,330.4,666.08z"/>
			<path class="st0" d="M356.19,654.95h4.09v15.84h-4.09v-1.77c-0.99,1.48-2.57,2.22-4.72,2.22c-1.73,0-3.16-0.58-4.29-1.74
				c-1.13-1.16-1.69-2.77-1.69-4.82v-9.73h4.09v9.22c0,1.06,0.29,1.86,0.86,2.42s1.33,0.84,2.28,0.84c1.06,0,1.9-0.33,2.53-0.98
				c0.63-0.65,0.95-1.64,0.95-2.95V654.95z"/>
			<path class="st0" d="M372.82,654.51c1.73,0,3.16,0.58,4.29,1.74c1.13,1.16,1.7,2.77,1.7,4.82v9.73h-4.09v-9.22
				c0-1.06-0.29-1.86-0.86-2.42s-1.33-0.84-2.28-0.84c-1.06,0-1.9,0.33-2.53,0.98c-0.63,0.65-0.95,1.64-0.95,2.95v8.55h-4.09v-15.84
				h4.09v1.77C369.09,655.25,370.67,654.51,372.82,654.51z"/>
			<path class="st0" d="M394.3,648.61h4.09v22.17h-4.09v-1.87c-1.2,1.54-2.91,2.31-5.13,2.31c-2.13,0-3.95-0.81-5.46-2.42
				c-1.51-1.62-2.27-3.6-2.27-5.94c0-2.34,0.75-4.32,2.27-5.94c1.51-1.62,3.33-2.42,5.46-2.42c2.22,0,3.93,0.77,5.13,2.31V648.61z
				 M386.77,666.08c0.83,0.83,1.88,1.25,3.15,1.25s2.31-0.42,3.14-1.25s1.24-1.91,1.24-3.22c0-1.31-0.41-2.38-1.24-3.21
				s-1.87-1.25-3.14-1.25s-2.32,0.42-3.15,1.25s-1.25,1.91-1.25,3.21C385.52,664.18,385.94,665.25,386.77,666.08z"/>
			<path class="st0" d="M406.21,657.67c0.38-1.01,1.01-1.77,1.88-2.28c0.88-0.51,1.85-0.76,2.93-0.76v4.56
				c-1.25-0.15-2.36,0.11-3.34,0.76s-1.47,1.74-1.47,3.26v7.57h-4.09v-15.84h4.09V657.67z"/>
			<path class="st0" d="M424.07,654.95h4.37l-5.77,15.87c-0.82,2.26-1.92,3.91-3.28,4.93c-1.36,1.03-3.05,1.49-5.08,1.38v-3.8
				c1.1,0.02,1.97-0.21,2.61-0.7c0.64-0.49,1.16-1.27,1.54-2.34l-6.49-15.33h4.47l4.13,10.65L424.07,654.95z"/>
		</g>
		<rect x="142.28" y="658.99" class="st0" width="162" height="5"/>
		<rect x="433.28" y="658.99" class="st0" width="162" height="5"/>
	</g>
</g>
</svg>
