<svg xmlns="http://www.w3.org/2000/svg" width="236.182" height="133.327" viewBox="0 0 236.182 133.327"><defs><style>.a{fill:#252626;}</style></defs><g transform="translate(-149.513 -241.5)"><path class="a" d="M278.49,79.186V58.152a25.419,25.419,0,0,0,0,49.727V86.855L289,92.912v25.622a39.118,39.118,0,0,1-3.934.36c-.436.028-.9.028-1.337.028s-.891,0-1.318-.028a38.615,38.615,0,0,1-3.934-.36A35.939,35.939,0,0,1,248.3,88.77a38.836,38.836,0,0,1-69.842,17.062c-.237-.322-.474-.654-.692-.986l-3.147-5.564-.047-.076-.6-1.071-3.811-6.825-14.02-25.158-.18.047a29.089,29.089,0,1,0,4.389,24.286l6.1,10.929A38.838,38.838,0,0,1,93.675,87.68,35.888,35.888,0,0,1,52.82,118.544V92.9l10.512-6.057V107.88a25.419,25.419,0,0,0,0-49.727V79.186L52.82,73.129V47.507a39.146,39.146,0,0,1,3.934-.37c.436-.028.9-.028,1.318-.028.436,0,.9,0,1.337.028a38.632,38.632,0,0,1,3.934.37A35.936,35.936,0,0,1,93.685,78.371a38.829,38.829,0,0,1,72.193-14.75L166.1,64l.284.5.085.161.009.019,3.052,5.488,2.455,4.4L183.49,95.244a29.337,29.337,0,0,0,2.085,3.744.859.859,0,0,0,.1.152l.009.028a28.57,28.57,0,0,0,3.242,4.01A29.083,29.083,0,1,0,181.8,75.395l-6.067-10.882a38.849,38.849,0,0,1,72.572,12.759A35.9,35.9,0,0,1,278.49,47.507a33.344,33.344,0,0,1,5.251-.4,34.455,34.455,0,0,1,5.261.4V73.129Z" transform="translate(96.693 197.32)"/><path class="a" d="M-217.966-41.677c-.122-8.436-12.37-5.881-12.37-9.491,0-1.1.892-1.744,2.515-1.744,1.947,0,3.123,1.014,3.326,2.555h6.408c-.446-4.461-3.691-7.706-9.531-7.706-5.922,0-9.207,3.164-9.207,7.017,0,8.314,12.33,5.678,12.33,9.328,0,1.014-.933,1.825-2.717,1.825-1.906,0-3.326-1.055-3.488-2.636h-6.854c.324,4.38,4.38,7.747,10.423,7.747C-221.454-34.782-217.966-37.743-217.966-41.677Zm29.648,6.57h7.625L-177-49.789l3.569,14.682h7.665l6.124-22.631h-6.53l-3.164,16.1-3.853-16.1h-7.341l-3.812,16.183-3.2-16.183h-6.935Zm62.865-17.4c2.312,0,4.259,1.42,4.259,3.894h-8.679A4.29,4.29,0,0,1-125.453-52.506Zm10.829,9.9h-7.382a3.688,3.688,0,0,1-3.61,2.19c-2.231,0-4.056-1.379-4.3-4.34h15.7a17.526,17.526,0,0,0,.122-2.028c0-6.895-4.664-11.275-11.275-11.275-6.733,0-11.437,4.461-11.437,11.64s4.786,11.64,11.437,11.64C-119.734-34.782-115.719-38.189-114.624-42.61Zm35.732-9.9c2.312,0,4.259,1.42,4.259,3.894h-8.679A4.29,4.29,0,0,1-78.892-52.506Zm10.829,9.9h-7.382a3.688,3.688,0,0,1-3.61,2.19c-2.231,0-4.056-1.379-4.3-4.34h15.7a17.531,17.531,0,0,0,.122-2.028c0-6.895-4.664-11.275-11.275-11.275-6.733,0-11.437,4.461-11.437,11.64s4.786,11.64,11.437,11.64C-73.174-34.782-69.158-38.189-68.063-42.61Zm24.375-3.853c0,7.138,4.421,11.681,9.977,11.681a7.828,7.828,0,0,0,6.976-3.569v3.245H-19.8V-65.12h-6.935v10.5a8.308,8.308,0,0,0-6.976-3.447C-39.267-58.063-43.688-53.6-43.688-46.463Zm16.953.041c0,3.61-2.312,5.6-4.948,5.6-2.6,0-4.948-2.028-4.948-5.638s2.352-5.556,4.948-5.556C-29.046-52.02-26.735-50.032-26.735-46.423Z" transform="translate(396.287 409.61)"/></g></svg>